<svg id="Layer_1" data-name="Layer 1" xmlns="http://www.w3.org/2000/svg" viewBox="0 0 131.29 357.33"><defs><style>.cls-1{fill:#282828;}.cls-2{fill:#fff;}.cls-3{fill:red;}.cls-4{fill:#001fff;}</style></defs><title>barbershop-thing-colored</title><path class="cls-1" d="M7187,7290.19c4.94,0,17.19.17,28.19.81,19.76,1.15,21.55,2.88,21.69,4.55a1.81,1.81,0,0,1-.52,1.4c-.66.72-2.42,2.62-22.58,4.22-10.69.84-22.09,1.22-26.78,1.22s-16-.39-26.81-1.27c-20.18-1.62-21.9-3.49-22.55-4.2a1.77,1.77,0,0,1-.51-1.37c.14-1.7,1.93-3.46,21.69-4.59C7169.45,7290.35,7181.51,7290.19,7187,7290.19Zm47.46,5.53c-1.07-.55-5.13-1.78-20.59-2.62-10.66-.59-22.24-.74-26.87-.74-26.36,0-44.55,1.68-47.46,3.33,1,.6,5,2,20.6,3.25,10.85.88,22.24,1.28,26.86,1.28s16.19-.38,26.89-1.24C7229.41,7297.74,7233.4,7296.33,7234.42,7295.72Z" transform="translate(-7121.32 -7021.93)"/><path class="cls-1" d="M7187,7111c-4.94,0-17.19-.16-28.18-.8-19.77-1.15-21.55-2.88-21.69-4.56a1.79,1.79,0,0,1,.52-1.39c.66-.72,2.42-2.63,22.58-4.22,10.68-.84,22.09-1.22,26.77-1.22s16,.39,26.82,1.26c20.17,1.62,21.9,3.5,22.55,4.2a1.78,1.78,0,0,1,.51,1.37c-.14,1.71-1.93,3.47-21.7,4.6C7204.48,7110.83,7192.41,7111,7187,7111Zm-47.45-5.53c1.06.56,5.13,1.78,20.59,2.63,10.66.58,22.23.74,26.86.74,26.36,0,44.55-1.69,47.46-3.34-1-.59-5-2-20.59-3.25-10.86-.88-22.25-1.28-26.87-1.28s-16.18.39-26.88,1.24C7144.52,7103.45,7140.53,7104.85,7139.51,7105.46Z" transform="translate(-7121.32 -7021.93)"/><rect class="cls-2" x="21.18" y="75.88" width="89.34" height="205.57"/><path class="cls-2" d="M7187,7300.22c4.72,0,16.18-.38,26.89-1.24,15.55-1.24,19.55-2.65,20.57-3.26-1.07-.55-5.13-1.78-20.59-2.62-10.66-.59-22.24-.74-26.87-.74-26.36,0-44.55,1.68-47.46,3.33,1,.6,5,2,20.6,3.25C7171,7299.82,7182.34,7300.22,7187,7300.22Z" transform="translate(-7121.32 -7021.93)"/><path class="cls-2" d="M7187,7090.8c4.44,0,43.45,1.12,49.54,5.08a10.51,10.51,0,0,0,2.9-.95c-.93-.63-5-2.23-22.73-3.67-12-1-24.59-1.42-29.71-1.42s-17.91.43-29.74,1.38c-17.76,1.42-21.8,3.09-22.7,3.69a11,11,0,0,0,2.88.93c1.21-.89,5.17-2.45,22.4-3.8C7170.66,7091.18,7182.22,7090.8,7187,7090.8Z" transform="translate(-7121.32 -7021.93)"/><path class="cls-2" d="M7147.71,7058.6a307.67,307.67,0,0,1,39.2-2.85h.05a308.7,308.7,0,0,1,35.47,2.49l1.11.13c6.34.72,11.55,1.51,15.72,2.39l-.43-8.65c-.79-15.45-14.72-28-31.06-28h-41.61c-16.35,0-30.28,12.57-31.06,28l-.43,8.57c3.85-.82,8.17-1.46,12.47-2Z" transform="translate(-7121.32 -7021.93)"/><path class="cls-2" d="M7240,7081.42a158.23,158.23,0,0,0-16.78-2.61l-1.09-.13a312.25,312.25,0,0,0-35.21-2.46h-.05A305.24,305.24,0,0,0,7148,7079l-.58.08a130.2,130.2,0,0,0-14.78,2.55c-8.27,2.09-9.14,4.14-9.13,4.93s.87,2.72,8.35,4.82l-.43-5.13a1.85,1.85,0,0,1,.54-1.44c4.34-4.71,49.12-6,55-6,5.05,0,50.68,1.31,55,6a1.82,1.82,0,0,1,.53,1.41l-.44,5.26c7.52-2.13,8.36-4.15,8.36-4.94S7249.41,7083.58,7240,7081.42Z" transform="translate(-7121.32 -7021.93)"/><path class="cls-2" d="M7240.07,7063.14a158.62,158.62,0,0,0-16.78-2.62l-1.11-.13a309.62,309.62,0,0,0-35.22-2.48h-.05a305.28,305.28,0,0,0-38.92,2.84l-.58.07a133,133,0,0,0-14.79,2.56c-8.27,2.08-9.14,4.13-9.14,4.91q0,7.36,0,14.73c4.23-3.14,14-4.82,23.65-6.05l.57-.08a307.94,307.94,0,0,1,39.19-2.84h.05a315.8,315.8,0,0,1,35.46,2.48l1.09.12a161.23,161.23,0,0,1,17,2.66c4.7,1.08,8,2.3,9.9,3.73q0-7.38,0-14.74C7250.44,7067.47,7249.42,7065.29,7240.07,7063.14Z" transform="translate(-7121.32 -7021.93)"/><path class="cls-2" d="M7187,7081c-5.28,0-18.13.43-30.14,1.39-19.66,1.56-22.74,3.35-23.22,3.84l.54,6.39c2.18-1,7.79-2.41,23.35-3.64,11.76-.93,24.32-1.34,29.47-1.34,4.63,0,43.95,1.13,52.82,5.06l.54-6.45c-.51-.49-3.69-2.24-23.24-3.82C7204.89,7081.49,7192.13,7081,7187,7081Z" transform="translate(-7121.32 -7021.93)"/><path class="cls-2" d="M7187,7101c-4.72,0-16.18.39-26.88,1.24-15.56,1.25-19.55,2.65-20.57,3.26,1.06.56,5.13,1.78,20.59,2.63,10.66.58,22.23.74,26.86.74,26.36,0,44.55-1.69,47.47-3.34-1-.59-5-2-20.6-3.25C7203,7101.36,7191.59,7101,7187,7101Z" transform="translate(-7121.32 -7021.93)"/><path class="cls-1" d="M7134.6,7062.1l-2.17-.1.51-10c.83-16.58,15.74-30.07,33.21-30.07h41.62c17.48,0,32.38,13.49,33.22,30.07l.46,9.25h-2.16l-.47-9.15c-.78-15.45-14.71-28-31-28h-41.62c-16.34,0-30.27,12.57-31,28Z" transform="translate(-7121.32 -7021.93)"/><path class="cls-1" d="M7252.59,7086.61h-2.17q0-9.16,0-18.31c0-.83-1-3-10.37-5.16a158.62,158.62,0,0,0-16.78-2.62l-1.11-.13a309.62,309.62,0,0,0-35.22-2.48h-.05a305.28,305.28,0,0,0-38.92,2.84l-.58.07a133,133,0,0,0-14.79,2.56c-8.27,2.08-9.14,4.13-9.14,4.91q0,9.16,0,18.32h-2.16q0-9.15,0-18.31c-.06-5.56,13-8,25.82-9.63l.57-.07a307.67,307.67,0,0,1,39.2-2.85h.05a308.7,308.7,0,0,1,35.47,2.49l1.1.13c20.37,2.32,29.06,5.29,29.08,9.93Q7252.61,7077.45,7252.59,7086.61Z" transform="translate(-7121.32 -7021.93)"/><path class="cls-1" d="M7241.48,7094l-.55-2.1c8.57-2.24,9.49-4.41,9.49-5.24s-1-3-10.38-5.19a158.23,158.23,0,0,0-16.78-2.61l-1.09-.13a312.25,312.25,0,0,0-35.21-2.46h-.05A305.24,305.24,0,0,0,7148,7079l-.58.08a130.2,130.2,0,0,0-14.78,2.55c-8.27,2.09-9.14,4.14-9.14,4.93s1,2.95,9.73,5.19l-.54,2.1c-7.71-2-11.32-4.29-11.35-7.27-.07-5.59,13-8,25.81-9.65l.57-.08a307.94,307.94,0,0,1,39.19-2.84h.05a315.8,315.8,0,0,1,35.46,2.48l1.09.12a161.23,161.23,0,0,1,17,2.66c8.22,1.9,12.05,4.21,12.06,7.3S7249,7092,7241.48,7094Z" transform="translate(-7121.32 -7021.93)"/><path class="cls-1" d="M7241.76,7095.09l-2.16-.18.72-8.62c-.51-.49-3.69-2.24-23.24-3.82-12.19-1-24.95-1.43-30.12-1.43s-18.13.43-30.14,1.39c-19.66,1.56-22.74,3.35-23.22,3.84l.72,8.64-2.16.18-.73-8.8a1.85,1.85,0,0,1,.54-1.44c4.34-4.71,49.12-6,55-6,5,0,50.68,1.31,55,6a1.85,1.85,0,0,1,.53,1.41Z" transform="translate(-7121.32 -7021.93)"/><path class="cls-1" d="M7236.35,7098.14l-.44-2.13a11.71,11.71,0,0,0,3.49-1.08c-.93-.63-5-2.23-22.73-3.67-12-1-24.59-1.42-29.71-1.42s-17.91.43-29.74,1.38c-17.76,1.42-21.8,3.09-22.7,3.69a13.21,13.21,0,0,0,3.68,1.1l-.42,2.12c-3.87-.76-5.5-1.64-5.62-3.05a1.86,1.86,0,0,1,.55-1.45c.65-.71,2.63-2.86,24.78-4.61,11.76-.93,24.32-1.34,29.47-1.34,5,0,50,1.3,54.27,6a1.84,1.84,0,0,1,.53,1.42C7241.65,7096.49,7240.08,7097.37,7236.35,7098.14Z" transform="translate(-7121.32 -7021.93)"/><path class="cls-2" d="M7187,7302.39c-4.6,0-16-.39-26.81-1.27-13.84-1.11-19-2.34-21.08-3.23l-.47,5.62c.55.46,3.67,2,21.13,3.42,11,.89,22.57,1.29,27.23,1.29s16.38-.39,27.26-1.25c17.56-1.39,20.59-3,21.11-3.45l-.47-5.6c-2.08.9-7.23,2.15-21.12,3.25C7203.05,7302,7191.65,7302.39,7187,7302.39Z" transform="translate(-7121.32 -7021.93)"/><path class="cls-2" d="M7187,7310.38c-4.43,0-43.45-1.12-49.54-5.08a10.65,10.65,0,0,0-2.9,1c.94.63,5,2.22,22.73,3.67,12,1,24.59,1.41,29.71,1.41s17.92-.43,29.74-1.37c17.77-1.43,21.8-3.09,22.7-3.7a10.77,10.77,0,0,0-2.87-.92c-1.22.88-5.18,2.45-22.4,3.8C7203.27,7310,7191.7,7310.38,7187,7310.38Z" transform="translate(-7121.32 -7021.93)"/><path class="cls-2" d="M7226.22,7342.59a307.82,307.82,0,0,1-39.21,2.85H7187a308.7,308.7,0,0,1-35.47-2.49l-1.1-.13c-6.35-.73-11.56-1.51-15.73-2.39l.44,8.65c.78,15.45,14.71,28,31,28h41.62c16.34,0,30.27-12.56,31-28l.44-8.57c-3.85.81-8.18,1.45-12.47,2Z" transform="translate(-7121.32 -7021.93)"/><path class="cls-2" d="M7133.88,7319.76a159.14,159.14,0,0,0,16.79,2.62l1.08.12A310.26,310.26,0,0,0,7187,7325h.05a305.51,305.51,0,0,0,38.92-2.82l.57-.07a130.67,130.67,0,0,0,14.79-2.56c8.27-2.09,9.14-4.14,9.13-4.92s-.87-2.72-8.35-4.83l.43,5.13a1.88,1.88,0,0,1-.54,1.45c-4.35,4.71-49.12,6-55,6-5,0-50.67-1.31-55-6a1.84,1.84,0,0,1-.53-1.42l.44-5.25c-7.52,2.13-8.37,4.14-8.37,4.94S7124.52,7317.6,7133.88,7319.76Z" transform="translate(-7121.32 -7021.93)"/><path class="cls-2" d="M7133.86,7338.05a160.47,160.47,0,0,0,16.78,2.62l1.1.12a305.25,305.25,0,0,0,35.22,2.48h.05a307,307,0,0,0,38.93-2.83l.57-.08a132.22,132.22,0,0,0,14.79-2.55c8.27-2.09,9.15-4.13,9.14-4.91,0-4.92,0-9.82,0-14.73-4.22,3.14-14,4.82-23.64,6.05l-.57.07a308,308,0,0,1-39.2,2.84H7187a314,314,0,0,1-35.46-2.47l-1.08-.13a158.65,158.65,0,0,1-17-2.66c-4.7-1.08-8-2.3-9.9-3.72q0,7.37,0,14.74C7123.49,7333.72,7124.5,7335.89,7133.86,7338.05Z" transform="translate(-7121.32 -7021.93)"/><path class="cls-2" d="M7187,7320.14c5.29,0,18.14-.43,30.15-1.38,19.66-1.56,22.74-3.35,23.21-3.84l-.53-6.4c-2.19,1-7.79,2.41-23.36,3.64-11.76.93-24.31,1.35-29.47,1.35-4.62,0-43.94-1.13-52.82-5.07l-.54,6.46c.52.49,3.69,2.24,23.25,3.82C7169,7319.7,7181.79,7320.14,7187,7320.14Z" transform="translate(-7121.32 -7021.93)"/><path class="cls-1" d="M7239.33,7339.08l2.17.11-.51,10c-.84,16.58-15.74,30.07-33.22,30.07h-41.61c-17.48,0-32.38-13.49-33.22-30.07l-.47-9.26h2.17l.46,9.16c.78,15.45,14.71,28,31.06,28h41.61c16.34,0,30.27-12.56,31.06-28Z" transform="translate(-7121.32 -7021.93)"/><path class="cls-1" d="M7121.34,7314.58h2.16q0,9.15,0,18.31c0,.83,1,3,10.38,5.16a160.87,160.87,0,0,0,16.78,2.62l1.11.12a304.91,304.91,0,0,0,35.21,2.48h.06a307,307,0,0,0,38.92-2.83l.57-.08a132.22,132.22,0,0,0,14.79-2.55c8.28-2.09,9.15-4.13,9.14-4.91q0-9.18,0-18.32h2.17q0,9.15,0,18.31c.06,5.56-13,8-25.82,9.62l-.57.08a307.8,307.8,0,0,1-39.2,2.85H7187a308.7,308.7,0,0,1-35.47-2.49l-1.1-.13c-20.36-2.33-29.06-5.3-29.07-9.93Q7121.32,7323.73,7121.34,7314.58Z" transform="translate(-7121.32 -7021.93)"/><path class="cls-1" d="M7132.44,7307.23l.55,2.1c-8.56,2.24-9.49,4.41-9.49,5.25s1,3,10.39,5.18a158.62,158.62,0,0,0,16.78,2.62l1.08.12A310.26,310.26,0,0,0,7187,7325h.05a305.51,305.51,0,0,0,38.92-2.82l.57-.07a130.67,130.67,0,0,0,14.79-2.56c8.27-2.09,9.14-4.14,9.13-4.92s-1-2.95-9.72-5.19l.54-2.1c7.71,2,11.32,4.28,11.35,7.27.06,5.59-13,8-25.81,9.65l-.57.07a308,308,0,0,1-39.2,2.84H7187a314,314,0,0,1-35.46-2.47l-1.08-.13a158.65,158.65,0,0,1-17-2.66c-8.23-1.89-12.06-4.21-12.06-7.29S7125,7309.19,7132.44,7307.23Z" transform="translate(-7121.32 -7021.93)"/><path class="cls-1" d="M7132.16,7306.1l2.16.18-.71,8.62c.51.49,3.68,2.24,23.24,3.82,12.18,1,24.94,1.42,30.11,1.42s18.14-.43,30.15-1.38c19.66-1.56,22.74-3.35,23.21-3.84l-.72-8.64,2.16-.18.74,8.79a1.88,1.88,0,0,1-.54,1.45c-4.34,4.71-49.12,6-55,6-5,0-50.67-1.31-55-6a1.84,1.84,0,0,1-.53-1.42Z" transform="translate(-7121.32 -7021.93)"/><path class="cls-1" d="M7137.58,7303.05l.43,2.12a12.15,12.15,0,0,0-3.49,1.09c.94.63,5,2.22,22.73,3.67,12,1,24.59,1.41,29.71,1.41s17.92-.43,29.74-1.37c17.77-1.43,21.8-3.09,22.7-3.7a12.87,12.87,0,0,0-3.68-1.09l.42-2.13c3.88.77,5.51,1.65,5.62,3.05a1.9,1.9,0,0,1-.54,1.46c-.65.7-2.63,2.85-24.79,4.6-11.76.93-24.31,1.35-29.47,1.35-5,0-49.95-1.3-54.26-6a1.87,1.87,0,0,1-.54-1.43C7132.28,7304.7,7133.85,7303.82,7137.58,7303.05Z" transform="translate(-7121.32 -7021.93)"/><rect class="cls-1" x="109.44" y="81.18" width="2.17" height="194.84"/><rect class="cls-1" x="19.77" y="81.18" width="2.17" height="194.84"/><path class="cls-2" d="M7187,7301.26c5,0,16.74-.41,27.48-1.28,3.57-.29,7-.64,10.08-1V7103.26c-3.05-.4-6.51-.74-10.08-1-10.74-.89-22.52-1.32-27.48-1.32s-16.75.41-27.49,1.28c-3.59.29-7.06.64-10.12,1V7298.9c3.06.39,6.53.74,10.12,1C7170.27,7300.83,7182.05,7301.26,7187,7301.26Z" transform="translate(-7121.32 -7021.93)"/><path class="cls-3" d="M7159.53,7102.18c-3.59.29-7.06.64-10.12,1V7151c15.75-15.33,29.66-32.52,43.25-50-2.3-.07-4.24-.1-5.64-.1C7182.05,7100.9,7170.27,7101.31,7159.53,7102.18Z" transform="translate(-7121.32 -7021.93)"/><path class="cls-4" d="M7149.41,7203.7V7263c28-27.28,50.22-60.45,75.17-90.83v-59.27C7196.56,7140.14,7174.36,7173.32,7149.41,7203.7Z" transform="translate(-7121.32 -7021.93)"/><path class="cls-3" d="M7211,7300.25c4.49-5.76,9-11.48,13.63-17.11v-59.26c-23.57,22.94-43,50.06-63.47,76.19,10.29.8,21.18,1.19,25.91,1.19C7191.44,7301.26,7201.27,7300.94,7211,7300.25Z" transform="translate(-7121.32 -7021.93)"/><path class="cls-1" d="M7130.89,7076.87a271.67,271.67,0,0,1,63.2-5.55,285.28,285.28,0,0,1,33.92,2.89c3.66.54,7.29,1.16,10.92,1.87,1.57.31,3.13.63,4.7,1a15.74,15.74,0,0,0,2.5.5c.11-.33-8.8-2.61-9.59-2.8-5.17-1.26-10.39-2.28-15.64-3.12a218.22,218.22,0,0,0-33.77-2.68,214,214,0,0,0-33.82,2.66c-4.69.75-9.35,1.65-14,2.77-.6.14-9.74,2.32-9.66,2.62a3.91,3.91,0,0,0,1.2-.15Z" transform="translate(-7121.32 -7021.93)"/><path class="cls-1" d="M7165.22,7028.45a31.4,31.4,0,0,0-13.22,3.42,25.17,25.17,0,0,0-10.44,10.86,30.59,30.59,0,0,0-3.13,14.78c0,.09,0,1.54.22,1.53a10,10,0,0,0,.35-2.24c.16-1,.36-2.08.6-3.11a39.22,39.22,0,0,1,2.63-7.69,29.57,29.57,0,0,1,9.72-11.76,32,32,0,0,1,7.61-3.88c1.17-.42,2.36-.78,3.55-1.11.16,0,2.61-.51,2.58-.73,0-.06-.18-.08-.47-.07Z" transform="translate(-7121.32 -7021.93)"/><path class="cls-1" d="M7208.65,7028.72a39,39,0,0,1,12.92,5.25,29.44,29.44,0,0,1,9.89,11.59,38,38,0,0,1,2.77,7.83c.26,1.09.48,2.2.65,3.31a10.8,10.8,0,0,0,.38,2.34c.42,0,.16-4.83.12-5.26a31.29,31.29,0,0,0-1.71-7.93,25.74,25.74,0,0,0-9.09-12.29,24.13,24.13,0,0,0-2.68-1.69,28.41,28.41,0,0,0-7.85-2.8c-1.11-.22-2.23-.37-3.36-.49a9.9,9.9,0,0,0-2.48-.06c0,.06.16.13.44.2Z" transform="translate(-7121.32 -7021.93)"/><path class="cls-1" d="M7237.39,7089.62l-5.07-1.26c-2.6-.65-5.23-1.13-7.86-1.63-5.49-1-11-1.75-16.58-2.25a220.16,220.16,0,0,0-32-.62,273.38,273.38,0,0,0-32.8,3.69c-.16,0-5.65,1-5.6,1.21a31.27,31.27,0,0,0,4.1-.41c2.65-.3,5.3-.55,8-.8q8.22-.75,16.45-1.16c10.8-.52,21.59-.7,32.4-.4,5.25.15,10.5.4,15.74.87,5.55.49,11.12,1,16.62,1.92,1.67.28,3.33.57,5,.84a13.46,13.46,0,0,0,2.6.34c0-.06-.36-.19-1-.34Z" transform="translate(-7121.32 -7021.93)"/><path class="cls-1" d="M7122.19,7066.67a88.39,88.39,0,0,1,13.74-3.3c5.3-.92,10.66-1.56,16-2a314.13,314.13,0,0,1,31.58-1l3.42,0c-9.58.51-19.12,1.16-28.63,2.39-10.4,1.35-20.86,3.16-30.83,6.45-1.41.47-2.8,1-4.17,1.59Z" transform="translate(-7121.32 -7021.93)"/><path class="cls-2" d="M7222,7121.11a15.75,15.75,0,0,1-1.36,1.78c-2.5,3-5.1,6.09-7.66,9.1-3.57,4.35-7.07,8.75-10.61,13.12-3.27,4.12-6.48,8.3-9.71,12.45L7190,7161l-2.64,3.46-2.11,2.74c-3.11,4-6.23,8-9.3,12.09s-6.16,8.09-9.19,12.17c-2.83,3.77-5.39,7.2-8.9,11.89-.93,1.24-1.86,2.48-2.8,3.7a12.07,12.07,0,0,1-1.13,1.35,8.32,8.32,0,0,1,.83-1.41c.8-1.25,1.65-2.5,2.51-3.75,2.73-4,5.56-8,8.4-12,2.94-4.16,6-8.29,9-12.42s6.09-8.24,9.18-12.33c.82-1.07,1.6-2.1,2.27-3l2.67-3.45,2.71-3.4c3.3-4.11,6.57-8.23,9.92-12.28,3.62-4.31,7.22-8.63,10.9-12.85,2.66-2.95,5.36-5.95,8-8.78A16.82,16.82,0,0,1,7222,7121.11Z" transform="translate(-7121.32 -7021.93)"/><path class="cls-2" d="M7175.92,7290.47c3.06-4.05,6.18-8.07,9.29-12.09l2.11-2.74,2.64-3.46,2.66-3.44c3.23-4.15,6.44-8.33,9.71-12.45,3.54-4.37,7-8.77,10.61-13.12,2.56-3,5.16-6.05,7.66-9.09a17.79,17.79,0,0,0,1.36-1.78,15.44,15.44,0,0,0-1.66,1.61c-2.68,2.83-5.38,5.83-8,8.78-3.68,4.22-7.28,8.54-10.9,12.85-3.35,4.05-6.62,8.17-9.92,12.28l-2.71,3.41-2.67,3.44-2.27,3c-3.09,4.09-6.17,8.18-9.18,12.32-2.28,3.12-4.55,6.23-6.8,9.36l1.33.07Z" transform="translate(-7121.32 -7021.93)"/><path class="cls-2" d="M7157.23,7110.48c-.86,1.25-1.71,2.5-2.51,3.75a8.32,8.32,0,0,0-.83,1.41,12.07,12.07,0,0,0,1.13-1.35c.94-1.22,1.87-2.46,2.8-3.7l6.41-8.56-1.18.08C7161.08,7104.9,7159.13,7107.69,7157.23,7110.48Z" transform="translate(-7121.32 -7021.93)"/><path class="cls-1" d="M7243.08,7324.27l-4.6.94-5.18.93c-1,.19-2.09.33-3.23.52l-3.62.56c-6,.84-12.06,1.49-18.1,1.94-7.57.56-15.09.79-22.33.76-1.81,0-3.63-.05-5.47-.08s-3.7-.11-5.56-.18c-3.73-.18-7.5-.38-11.29-.71-6-.48-12.13-1.19-18.08-2.07-5.08-.75-9.17-1.52-12-2.1s-4.46-1-4.59-1a3.85,3.85,0,0,0-1.18-.2,3.13,3.13,0,0,0,1.11.46c.13,0,1.7.56,4.52,1.33s6.87,1.77,11.93,2.77c5.94,1.17,12.05,2.11,18.12,2.76,3.8.43,7.6.71,11.36.94,1.88.09,3.75.19,5.61.24s3.7.11,5.52.1a218.85,218.85,0,0,0,22.51-1.07c6.08-.63,12.19-1.5,18.13-2.64,1.27-.24,2.47-.5,3.61-.74s2.22-.44,3.21-.7l5.14-1.24,4.54-1.24a.61.61,0,1,0-.07-.27Z" transform="translate(-7121.32 -7021.93)"/><path class="cls-1" d="M7208.74,7372.69a31.18,31.18,0,0,0,13.22-3.42,25.05,25.05,0,0,0,10.45-10.85,30.65,30.65,0,0,0,3.12-14.79c0-.09,0-1.53-.21-1.52a10.5,10.5,0,0,0-.36,2.23c-.16,1.05-.36,2.09-.59,3.12a40.12,40.12,0,0,1-2.63,7.69,29.52,29.52,0,0,1-9.85,11.84,32.39,32.39,0,0,1-7.49,3.8c-1.16.42-2.35.78-3.54,1.1-.16,0-2.61.52-2.59.73s.42.08.47.07h0Z" transform="translate(-7121.32 -7021.93)"/><path class="cls-1" d="M7165.32,7372.42a38.59,38.59,0,0,1-12.92-5.25,29.52,29.52,0,0,1-9.9-11.58,39,39,0,0,1-2.76-7.83c-.27-1.1-.49-2.2-.66-3.32a10.71,10.71,0,0,0-.37-2.33c-.42,0-.16,4.83-.13,5.25a31.63,31.63,0,0,0,1.71,7.93,25.8,25.8,0,0,0,9.1,12.3,23.16,23.16,0,0,0,2.68,1.68,28.14,28.14,0,0,0,7.84,2.8c1.12.22,2.24.38,3.36.5.11,0,2.46.26,2.49.05,0-.05-.16-.13-.44-.2Z" transform="translate(-7121.32 -7021.93)"/><path class="cls-1" d="M7136.57,7311.53l5.07,1.25c2.61.65,5.23,1.14,7.87,1.63,5.49,1,11,1.75,16.58,2.25a218.73,218.73,0,0,0,32,.62,273.36,273.36,0,0,0,32.8-3.68c.16,0,5.64-1,5.6-1.21a31.37,31.37,0,0,0-4.11.4c-2.64.3-5.3.56-8,.8-5.47.5-10.95.9-16.44,1.16-10.8.52-21.59.71-32.4.41-5.25-.15-10.51-.41-15.74-.87-5.55-.5-11.13-1-16.62-1.92l-5-.85a12.67,12.67,0,0,0-2.6-.33,2.8,2.8,0,0,0,1,.34Z" transform="translate(-7121.32 -7021.93)"/><path class="cls-1" d="M7251.78,7334.47a86.44,86.44,0,0,1-13.74,3.3c-5.31.92-10.66,1.56-16,2-10.5.92-21,1.16-31.58,1l-3.41,0c9.57-.51,19.11-1.17,28.63-2.4,10.39-1.34,20.85-3.16,30.82-6.45,1.42-.46,2.81-1,4.18-1.58Z" transform="translate(-7121.32 -7021.93)"/><path class="cls-1" d="M7139.19,7295.45c.24.31,2.38,2,20.38,3.45,11,.91,22.64,1.32,27.39,1.32s16.56-.4,27.4-1.28c18-1.47,20.13-3.15,20.37-3.47a.5.5,0,0,0,0,.26l2.16-.18.66,8a1.75,1.75,0,0,1-.51,1.38c-.66.72-2.42,2.63-22.86,4.23-10.86.85-22.43,1.23-27.17,1.23-4.58,0-46.08-1.19-50-5.48a1.75,1.75,0,0,1-.51-1.36l.67-8,2.16.18A.45.45,0,0,0,7139.19,7295.45Zm47.77,6.94c-4.79,0-16.51-.41-27.57-1.33-12.18-1-17.79-2.09-20.32-3.18l-.47,5.63c.55.46,3.67,2,21.13,3.42,11,.89,22.57,1.29,27.23,1.29s16.38-.39,27.26-1.25c17.56-1.39,20.59-3,21.11-3.45l-.47-5.62a24.75,24.75,0,0,1-5.26,1.41c-3.62.67-8.69,1.27-15.06,1.79C7203.63,7302,7191.85,7302.39,7187,7302.39Z" transform="translate(-7121.32 -7021.93)"/><path class="cls-1" d="M7137.86,7297.59c9.2,1.71,18.45,3.15,27.75,4.22a192.6,192.6,0,0,0,31.93,1.48c1.57-.08,3.13-.28,4.69-.43-1.86.3-3.73.64-5.61.83-2.43.26-4.86.49-7.31.63-5.32.29-10.65.29-16,.16-10.53-.26-21.06-1-31.53-2.2-1.54-.17-3.08-.36-4.61-.54Z" transform="translate(-7121.32 -7021.93)"/><path class="cls-2" d="M7187,7098.8c4.61,0,16,.39,26.82,1.26,13.83,1.11,19,2.35,21.08,3.24l.47-5.62c-.55-.47-3.67-2-21.13-3.42-11-.89-22.57-1.29-27.24-1.29s-16.38.39-27.26,1.25c-17.55,1.39-20.58,3-21.1,3.44l.47,5.61c2.08-.91,7.23-2.15,21.12-3.25C7170.87,7099.18,7182.28,7098.8,7187,7098.8Z" transform="translate(-7121.32 -7021.93)"/><path class="cls-1" d="M7234.74,7105.74c-.25-.32-2.39-2-20.38-3.46-11-.91-22.64-1.32-27.4-1.32s-16.55.4-27.4,1.29c-18,1.46-20.13,3.14-20.37,3.47a.44.44,0,0,0,.06-.26l-2.16.18-.67-8a1.79,1.79,0,0,1,.52-1.39c.66-.72,2.41-2.62,22.85-4.22,10.87-.86,22.43-1.24,27.17-1.24s46.08,1.2,50,5.49a1.74,1.74,0,0,1,.5,1.36l-.66,8-2.16-.18A.4.4,0,0,0,7234.74,7105.74ZM7187,7098.8c4.79,0,16.52.41,27.58,1.32,12.17,1,17.79,2.09,20.32,3.19l.47-5.63c-.55-.47-3.67-2-21.13-3.42-11-.89-22.57-1.29-27.24-1.29s-16.38.39-27.26,1.25c-17.55,1.39-20.58,3-21.1,3.44l.47,5.62a25.36,25.36,0,0,1,5.25-1.4c3.63-.67,8.7-1.28,15.07-1.8C7170.29,7099.2,7182.08,7098.8,7187,7098.8Z" transform="translate(-7121.32 -7021.93)"/><path class="cls-1" d="M7236.1,7103.56c-9.2-1.72-18.44-3.15-27.74-4.22a192.68,192.68,0,0,0-31.94-1.49c-1.56.09-3.13.29-4.69.44,1.87-.3,3.73-.64,5.61-.84,2.44-.25,4.87-.49,7.32-.62,5.31-.29,10.64-.3,16-.17,10.54.26,21.07,1.06,31.54,2.21,1.54.16,3.07.35,4.61.54Z" transform="translate(-7121.32 -7021.93)"/></svg>