<?xml version="1.0" encoding="utf-8"?>
<!-- Generator: Adobe Illustrator 23.1.0, SVG Export Plug-In . SVG Version: 6.00 Build 0)  -->
<svg version="1.1" id="Layer_1" xmlns="http://www.w3.org/2000/svg" xmlns:xlink="http://www.w3.org/1999/xlink" x="0px" y="0px"
	 viewBox="0 0 14400 14400" style="enable-background:new 0 0 14400 14400;" xml:space="preserve">
<style type="text/css">
	.st0{fill:#282828;}
	.st1{fill:#FFFFFF;}
	.st2{fill:#FF0000;}
	.st3{fill:#001FFF;}
</style>
<g>
	<g>
		<path class="st0" d="M7186.96,7290.19c4.94,0,17.19,0.17,28.18,0.81c19.77,1.15,21.55,2.88,21.69,4.55
			c0.03,0.35-0.04,0.87-0.52,1.4c-0.66,0.72-2.42,2.62-22.58,4.22c-10.69,0.84-22.09,1.22-26.78,1.22c-4.6,0-15.97-0.39-26.81-1.27
			c-20.17-1.62-21.9-3.5-22.55-4.2c-0.47-0.51-0.54-1.03-0.51-1.37c0.14-1.71,1.93-3.47,21.7-4.59
			C7169.45,7290.35,7181.51,7290.19,7186.96,7290.19z M7234.42,7295.72c-1.06-0.55-5.13-1.78-20.58-2.63
			c-10.66-0.58-22.24-0.74-26.87-0.74c-26.36,0-44.55,1.68-47.46,3.33c1.02,0.6,5.02,1.99,20.6,3.25
			c10.85,0.88,22.24,1.28,26.87,1.28c4.72,0,16.18-0.38,26.89-1.24C7229.41,7297.74,7233.4,7296.33,7234.42,7295.72z"/>
	</g>
	<g>
		<path class="st0" d="M7186.96,7110.99c-4.94,0-17.19-0.17-28.18-0.81c-19.77-1.15-21.55-2.88-21.69-4.55
			c-0.03-0.35,0.04-0.87,0.52-1.4c0.66-0.72,2.42-2.62,22.58-4.22c10.69-0.84,22.09-1.22,26.78-1.22c4.6,0,15.97,0.39,26.81,1.27
			c20.17,1.62,21.9,3.5,22.55,4.2c0.47,0.51,0.54,1.03,0.51,1.37c-0.14,1.71-1.93,3.47-21.7,4.59
			C7204.48,7110.83,7192.41,7110.99,7186.96,7110.99z M7139.51,7105.46c1.06,0.55,5.13,1.78,20.58,2.63
			c10.66,0.58,22.24,0.74,26.87,0.74c26.36,0,44.55-1.68,47.46-3.33c-1.02-0.6-5.02-1.99-20.6-3.25
			c-10.85-0.88-22.24-1.28-26.86-1.28c-4.72,0-16.18,0.38-26.89,1.24C7144.52,7103.45,7140.53,7104.85,7139.51,7105.46z"/>
	</g>
	<rect x="7142.49" y="7097.81" class="st1" width="89.34" height="205.57"/>
	<path class="st1" d="M7186.96,7300.22c4.72,0,16.18-0.38,26.89-1.24c15.55-1.24,19.55-2.65,20.56-3.26
		c-1.06-0.55-5.13-1.78-20.59-2.63c-10.66-0.58-22.24-0.74-26.87-0.74c-26.36,0-44.55,1.68-47.46,3.33c1.02,0.6,5.02,1.99,20.6,3.25
		C7170.95,7299.82,7182.34,7300.22,7186.96,7300.22z"/>
	<path class="st1" d="M7186.96,7090.8c4.44,0,43.45,1.12,49.54,5.08c1.75-0.4,2.55-0.75,2.9-0.96c-0.94-0.63-5.02-2.23-22.73-3.67
		c-11.99-0.98-24.59-1.42-29.71-1.42c-5.23,0-17.92,0.43-29.74,1.38c-17.77,1.42-21.8,3.09-22.7,3.69c0.35,0.2,1.14,0.54,2.88,0.93
		c1.21-0.89,5.17-2.45,22.4-3.8C7170.66,7091.18,7182.22,7090.8,7186.96,7090.8z"/>
	<path class="st1" d="M7147.71,7058.6c14.89-1.92,27.72-2.85,39.2-2.85c0.02,0,0.03,0,0.05,0c12.49,0,24.94,1.26,35.47,2.49
		l1.1,0.13c6.35,0.73,11.56,1.51,15.73,2.39l-0.44-8.65c-0.78-15.45-14.71-28.01-31.05-28.01h-41.62
		c-16.34,0-30.27,12.57-31.05,28.01l-0.43,8.57c3.85-0.82,8.17-1.46,12.47-2L7147.71,7058.6z"/>
	<path class="st1" d="M7240.04,7081.42c-6.02-1.39-13.02-2.19-16.78-2.62l-1.09-0.12c-9.81-1.14-22.69-2.46-35.21-2.46
		c-0.02,0-0.03,0-0.05,0c-11.44,0-24.17,0.92-38.92,2.82l-0.57,0.07c-3.3,0.42-9.44,1.21-14.79,2.56c-8.27,2.09-9.14,4.14-9.13,4.92
		c0.01,0.77,0.88,2.72,8.35,4.83l-0.43-5.13c-0.03-0.36,0.04-0.9,0.54-1.44c4.34-4.71,49.12-5.97,54.99-5.97
		c5.04,0,50.68,1.31,55.01,6.01c0.49,0.53,0.56,1.06,0.53,1.41l-0.44,5.26c7.52-2.13,8.37-4.15,8.36-4.94
		C7250.42,7085.77,7249.41,7083.58,7240.04,7081.42z"/>
	<path class="st1" d="M7240.07,7063.14c-6.02-1.39-13.02-2.19-16.78-2.62l-1.11-0.13c-10.47-1.22-22.84-2.48-35.22-2.48
		c-0.02,0-0.03,0-0.05,0c-11.39,0-24.12,0.93-38.93,2.84l-0.57,0.07c-3.3,0.42-9.45,1.21-14.79,2.56c-8.27,2.09-9.15,4.13-9.14,4.91
		c0,4.92,0.01,9.82,0.02,14.73c4.23-3.14,14.02-4.82,23.65-6.05l0.57-0.07c14.84-1.91,27.66-2.84,39.2-2.84c0.02,0,0.03,0,0.05,0
		c12.63,0,25.59,1.32,35.46,2.48l1.08,0.12c3.8,0.43,10.88,1.24,17.02,2.66c4.7,1.08,7.96,2.3,9.9,3.73
		c0.01-4.91,0.01-9.83,0.02-14.74C7250.44,7067.47,7249.42,7065.29,7240.07,7063.14z"/>
	<path class="st1" d="M7186.96,7081.04c-5.29,0-18.13,0.43-30.15,1.38c-19.66,1.56-22.73,3.35-23.21,3.84l0.53,6.4
		c2.18-0.99,7.79-2.41,23.35-3.64c11.76-0.93,24.31-1.35,29.47-1.35c4.63,0,43.95,1.13,52.82,5.07l0.54-6.45
		c-0.51-0.49-3.69-2.24-23.24-3.82C7204.89,7081.49,7192.13,7081.04,7186.96,7081.04z"/>
	<path class="st1" d="M7186.96,7100.96c-4.72,0-16.18,0.38-26.89,1.24c-15.55,1.24-19.55,2.65-20.56,3.26
		c1.06,0.55,5.13,1.78,20.59,2.63c10.66,0.58,22.24,0.74,26.87,0.74c26.36,0,44.55-1.68,47.46-3.33c-1.02-0.6-5.02-1.99-20.6-3.25
		C7202.98,7101.36,7191.59,7100.96,7186.96,7100.96z"/>
	<g>
		<path class="st0" d="M7134.6,7062.1l-2.17-0.11l0.51-10c0.84-16.58,15.74-30.07,33.22-30.07h41.62
			c17.48,0,32.38,13.49,33.22,30.07l0.46,9.26l-2.17,0.01l-0.46-9.15c-0.78-15.45-14.71-28.01-31.05-28.01h-41.62
			c-16.34,0-30.27,12.57-31.05,28.01L7134.6,7062.1z"/>
	</g>
	<g>
		<g>
			<g>
				<path class="st0" d="M7252.59,7086.61l-2.17,0c0.01-6.1,0.02-12.21,0.02-18.31c0-0.83-1.02-3.01-10.37-5.16
					c-6.02-1.39-13.02-2.19-16.78-2.62l-1.11-0.13c-10.47-1.22-22.84-2.48-35.22-2.48c-0.02,0-0.03,0-0.05,0
					c-11.39,0-24.12,0.93-38.92,2.84l-0.57,0.07c-3.3,0.42-9.45,1.21-14.79,2.56c-8.27,2.09-9.15,4.13-9.14,4.91
					c0,6.11,0.01,12.22,0.02,18.32l-2.17,0c-0.01-6.1-0.02-12.21-0.02-18.31c-0.06-5.56,13.02-7.99,25.82-9.63l0.57-0.07
					c14.89-1.92,27.72-2.85,39.2-2.85c0.02,0,0.03,0,0.05,0c12.49,0,24.94,1.26,35.47,2.49l1.1,0.13
					c20.36,2.33,29.06,5.3,29.07,9.93C7252.61,7074.4,7252.6,7080.51,7252.59,7086.61z"/>
			</g>
			<g>
				<path class="st0" d="M7241.48,7093.95l-0.55-2.1c8.57-2.24,9.49-4.41,9.49-5.25c0-0.84-1.02-3.03-10.38-5.19
					c-6.02-1.39-13.02-2.19-16.78-2.62l-1.09-0.12c-9.81-1.14-22.69-2.46-35.21-2.46c-0.02,0-0.03,0-0.05,0
					c-11.44,0-24.17,0.92-38.92,2.82l-0.57,0.07c-3.3,0.42-9.44,1.21-14.79,2.56c-8.27,2.09-9.14,4.14-9.13,4.92
					c0.01,0.81,0.97,2.95,9.72,5.19l-0.54,2.1c-7.71-1.98-11.32-4.29-11.35-7.27c-0.06-5.59,13.01-8.02,25.81-9.65l0.57-0.07
					c14.84-1.91,27.66-2.84,39.2-2.84c0.02,0,0.03,0,0.05,0c12.63,0,25.59,1.32,35.46,2.48l1.08,0.12
					c3.8,0.43,10.88,1.24,17.02,2.66c8.22,1.9,12.06,4.21,12.06,7.3C7252.59,7089.59,7248.96,7092,7241.48,7093.95z"/>
			</g>
		</g>
	</g>
	<g>
		<g>
			<path class="st0" d="M7241.76,7095.09l-2.16-0.18l0.72-8.62c-0.51-0.49-3.69-2.24-23.24-3.82c-12.19-0.98-24.95-1.43-30.12-1.43
				c-5.29,0-18.13,0.43-30.15,1.38c-19.66,1.56-22.74,3.35-23.21,3.84l0.72,8.64l-2.16,0.18l-0.73-8.79
				c-0.03-0.36,0.04-0.9,0.54-1.44c4.34-4.71,49.12-5.97,54.99-5.97c5.04,0,50.68,1.31,55.01,6.01c0.49,0.53,0.56,1.06,0.53,1.41
				L7241.76,7095.09z"/>
		</g>
		<g>
			<path class="st0" d="M7236.35,7098.14l-0.44-2.12c2.18-0.45,3.11-0.86,3.49-1.09c-0.94-0.63-5.02-2.23-22.73-3.67
				c-11.99-0.98-24.59-1.42-29.71-1.42c-5.23,0-17.92,0.43-29.74,1.38c-17.77,1.42-21.8,3.09-22.7,3.69c0.4,0.23,1.37,0.64,3.68,1.1
				l-0.42,2.13c-3.88-0.76-5.5-1.65-5.62-3.05c-0.03-0.36,0.04-0.91,0.54-1.45c0.65-0.71,2.63-2.86,24.78-4.61
				c11.76-0.93,24.31-1.35,29.47-1.35c4.97,0,49.95,1.3,54.27,5.98c0.49,0.53,0.56,1.07,0.53,1.42
				C7241.65,7096.49,7240.08,7097.37,7236.35,7098.14z"/>
		</g>
	</g>
	<g>
		<path class="st1" d="M7186.96,7302.39c-4.6,0-15.97-0.39-26.81-1.27c-13.84-1.11-19-2.34-21.08-3.24l-0.47,5.62
			c0.55,0.46,3.67,2.02,21.13,3.42c11.04,0.89,22.57,1.29,27.24,1.29c4.77,0,16.38-0.39,27.26-1.25
			c17.55-1.39,20.59-2.98,21.11-3.44l-0.47-5.61c-2.08,0.9-7.23,2.15-21.12,3.25C7203.05,7302.01,7191.65,7302.39,7186.96,7302.39z"
			/>
		<path class="st1" d="M7186.96,7310.38c-4.44,0-43.45-1.12-49.54-5.08c-1.76,0.4-2.55,0.75-2.9,0.96
			c0.94,0.63,5.02,2.22,22.73,3.67c11.99,0.98,24.59,1.42,29.71,1.42c5.23,0,17.92-0.43,29.74-1.38c17.77-1.42,21.8-3.09,22.7-3.69
			c-0.35-0.2-1.14-0.54-2.88-0.93c-1.21,0.89-5.17,2.45-22.4,3.8C7203.27,7310,7191.7,7310.38,7186.96,7310.38z"/>
		<path class="st1" d="M7226.22,7342.59c-14.89,1.92-27.72,2.85-39.2,2.85c-0.02,0-0.03,0-0.05,0c-12.49,0-24.94-1.26-35.47-2.49
			l-1.1-0.13c-6.35-0.73-11.56-1.51-15.73-2.39l0.44,8.65c0.78,15.45,14.71,28.01,31.05,28.01h41.62
			c16.34,0,30.27-12.57,31.05-28.01l0.43-8.57c-3.85,0.82-8.17,1.46-12.47,2L7226.22,7342.59z"/>
		<path class="st1" d="M7133.88,7319.76c6.02,1.39,13.02,2.19,16.78,2.62l1.09,0.13c9.81,1.14,22.69,2.46,35.21,2.46
			c0.02,0,0.03,0,0.05,0c11.44,0,24.17-0.92,38.92-2.82l0.57-0.07c3.3-0.42,9.44-1.21,14.79-2.56c8.27-2.09,9.14-4.14,9.13-4.92
			c-0.01-0.77-0.88-2.72-8.35-4.83l0.43,5.13c0.03,0.36-0.04,0.9-0.54,1.44c-4.34,4.71-49.12,5.97-54.99,5.97
			c-5.04,0-50.68-1.31-55.01-6.01c-0.49-0.53-0.56-1.06-0.53-1.41l0.44-5.26c-7.52,2.13-8.37,4.15-8.36,4.94
			C7123.51,7315.42,7124.52,7317.6,7133.88,7319.76z"/>
		<path class="st1" d="M7133.86,7338.05c6.02,1.39,13.02,2.19,16.78,2.62l1.11,0.13c10.47,1.22,22.84,2.48,35.22,2.48
			c0.02,0,0.03,0,0.05,0c11.39,0,24.12-0.93,38.93-2.84l0.57-0.07c3.3-0.42,9.45-1.21,14.79-2.56c8.27-2.09,9.15-4.13,9.14-4.91
			c0-4.92-0.01-9.82-0.02-14.73c-4.23,3.14-14.01,4.82-23.65,6.05l-0.57,0.07c-14.84,1.91-27.66,2.84-39.2,2.84
			c-0.02,0-0.03,0-0.05,0c-12.63,0-25.59-1.32-35.46-2.48l-1.08-0.12c-3.8-0.43-10.88-1.24-17.02-2.66c-4.7-1.08-7.96-2.3-9.9-3.73
			c-0.01,4.91-0.01,9.83-0.02,14.74C7123.49,7333.72,7124.5,7335.89,7133.86,7338.05z"/>
		<path class="st1" d="M7186.96,7320.14c5.29,0,18.13-0.43,30.15-1.38c19.66-1.56,22.73-3.35,23.21-3.84l-0.53-6.39
			c-2.18,0.99-7.79,2.41-23.35,3.64c-11.76,0.93-24.31,1.35-29.47,1.35c-4.63,0-43.95-1.13-52.82-5.07l-0.54,6.45
			c0.51,0.49,3.69,2.24,23.24,3.82C7169.03,7319.7,7181.79,7320.14,7186.96,7320.14z"/>
	</g>
	<g>
		<path class="st0" d="M7239.33,7339.08l2.17,0.11l-0.51,10c-0.84,16.58-15.74,30.07-33.22,30.07h-41.62
			c-17.48,0-32.38-13.49-33.22-30.07l-0.46-9.26l2.17-0.01l0.46,9.15c0.78,15.45,14.71,28.01,31.05,28.01h41.62
			c16.34,0,30.27-12.57,31.05-28.01L7239.33,7339.08z"/>
	</g>
	<g>
		<g>
			<g>
				<path class="st0" d="M7121.34,7314.58l2.17,0c-0.01,6.1-0.02,12.21-0.02,18.31c0,0.83,1.02,3.01,10.37,5.16
					c6.02,1.39,13.02,2.19,16.78,2.62l1.11,0.13c10.47,1.22,22.84,2.48,35.22,2.48c0.02,0,0.03,0,0.05,0
					c11.39,0,24.12-0.93,38.92-2.84l0.57-0.07c3.3-0.42,9.45-1.21,14.79-2.56c8.27-2.09,9.15-4.13,9.14-4.91
					c0-6.11-0.01-12.22-0.02-18.32l2.17,0c0.01,6.1,0.02,12.21,0.02,18.31c0.06,5.56-13.02,7.99-25.82,9.63l-0.57,0.07
					c-14.89,1.92-27.72,2.85-39.2,2.85c-0.02,0-0.03,0-0.05,0c-12.49,0-24.94-1.26-35.47-2.49l-1.1-0.13
					c-20.36-2.33-29.06-5.3-29.07-9.93C7121.32,7326.78,7121.33,7320.68,7121.34,7314.58z"/>
			</g>
			<g>
				<path class="st0" d="M7132.44,7307.23l0.55,2.1c-8.57,2.24-9.49,4.41-9.49,5.25c0,0.84,1.02,3.03,10.38,5.19
					c6.02,1.39,13.02,2.19,16.78,2.62l1.09,0.13c9.81,1.14,22.69,2.46,35.21,2.46c0.02,0,0.03,0,0.05,0
					c11.44,0,24.17-0.92,38.92-2.82l0.57-0.07c3.3-0.42,9.44-1.21,14.79-2.56c8.27-2.09,9.14-4.14,9.13-4.92
					c-0.01-0.81-0.97-2.95-9.72-5.19l0.54-2.1c7.71,1.98,11.32,4.29,11.35,7.27c0.06,5.59-13.01,8.02-25.81,9.65l-0.57,0.07
					c-14.84,1.91-27.66,2.84-39.2,2.84c-0.02,0-0.03,0-0.05,0c-12.63,0-25.59-1.32-35.46-2.48l-1.08-0.12
					c-3.8-0.43-10.88-1.24-17.02-2.66c-8.22-1.9-12.06-4.21-12.06-7.3C7121.33,7311.59,7124.97,7309.19,7132.44,7307.23z"/>
			</g>
		</g>
	</g>
	<g>
		<g>
			<path class="st0" d="M7132.16,7306.1l2.16,0.18l-0.72,8.62c0.51,0.49,3.69,2.24,23.24,3.82c12.19,0.98,24.95,1.43,30.12,1.43
				c5.29,0,18.13-0.43,30.15-1.38c19.66-1.56,22.73-3.35,23.21-3.84l-0.72-8.64l2.16-0.18l0.73,8.79c0.03,0.36-0.04,0.9-0.54,1.44
				c-4.34,4.71-49.12,5.97-54.99,5.97c-5.04,0-50.68-1.31-55.01-6.01c-0.49-0.53-0.56-1.06-0.53-1.41L7132.16,7306.1z"/>
		</g>
		<g>
			<path class="st0" d="M7137.58,7303.05l0.44,2.12c-2.18,0.45-3.11,0.86-3.49,1.09c0.94,0.63,5.02,2.22,22.73,3.67
				c11.99,0.98,24.59,1.42,29.71,1.42c5.23,0,17.92-0.43,29.74-1.38c17.77-1.42,21.8-3.09,22.7-3.69c-0.4-0.23-1.37-0.64-3.68-1.1
				l0.42-2.13c3.88,0.76,5.5,1.65,5.62,3.05c0.03,0.36-0.04,0.91-0.54,1.45c-0.65,0.71-2.63,2.86-24.78,4.61
				c-11.76,0.93-24.31,1.35-29.47,1.35c-4.97,0-49.95-1.3-54.27-5.98c-0.49-0.53-0.56-1.07-0.53-1.42
				C7132.28,7304.7,7133.85,7303.81,7137.58,7303.05z"/>
		</g>
	</g>
	<g>
		<rect x="7230.75" y="7103.1" class="st0" width="2.17" height="194.84"/>
	</g>
	<g>
		<rect x="7141.08" y="7103.1" class="st0" width="2.17" height="194.84"/>
	</g>
	<path class="st1" d="M7187.02,7301.26c4.97,0,16.75-0.41,27.49-1.28c3.57-0.29,7.03-0.63,10.08-1.03v-195.69
		c-3.05-0.4-6.51-0.74-10.08-1.04c-10.74-0.89-22.52-1.32-27.49-1.32s-16.75,0.41-27.49,1.28c-3.59,0.29-7.06,0.64-10.12,1.04
		v195.68c3.06,0.4,6.53,0.75,10.12,1.04C7170.27,7300.83,7182.05,7301.26,7187.02,7301.26z"/>
	<g>
		<path class="st2" d="M7159.53,7102.18c-3.59,0.29-7.06,0.64-10.12,1.04v47.82c15.75-15.33,29.66-32.52,43.26-50.04
			c-2.31-0.07-4.25-0.1-5.65-0.1C7182.05,7100.9,7170.27,7101.31,7159.53,7102.18z"/>
	</g>
	<g>
		<path class="st3" d="M7149.41,7203.7v59.26c28.02-27.27,50.22-60.45,75.18-90.83v-59.26
			C7196.56,7140.14,7174.36,7173.32,7149.41,7203.7z"/>
	</g>
	<g>
		<path class="st2" d="M7210.95,7300.25c4.49-5.76,9.01-11.48,13.63-17.11v-59.26c-23.58,22.94-43.03,50.07-63.47,76.19
			c10.29,0.8,21.18,1.2,25.91,1.2C7191.44,7301.26,7201.27,7300.94,7210.95,7300.25z"/>
	</g>
	<g>
		<g>
			<g>
				<path class="st0" d="M7130.89,7076.87c9.7-1.96,19.45-3.5,29.3-4.43c11.26-1.06,22.59-1.42,33.9-1.12
					c11.35,0.3,22.69,1.25,33.93,2.89c3.65,0.54,7.29,1.16,10.91,1.87c1.57,0.31,3.14,0.63,4.7,0.99c0.25,0.06,2.47,0.64,2.51,0.51
					c0.11-0.34-8.8-2.61-9.59-2.8c-5.17-1.26-10.39-2.28-15.64-3.12c-11.16-1.78-22.47-2.67-33.77-2.68
					c-11.32-0.01-22.64,0.87-33.82,2.66c-4.68,0.75-9.35,1.65-13.96,2.76c-0.6,0.14-9.73,2.32-9.66,2.62
					C7129.7,7077.07,7130.16,7077.01,7130.89,7076.87C7131.03,7076.84,7130.16,7077.01,7130.89,7076.87z"/>
			</g>
		</g>
	</g>
	<g>
		<g>
			<g>
				<path class="st0" d="M7165.22,7028.45c-4.61,0.27-9.11,1.2-13.22,3.42c-4.51,2.45-8.16,6.27-10.44,10.86
					c-2.26,4.54-3.34,9.72-3.13,14.79c0,0.09,0.02,1.53,0.21,1.52c0.17-0.01,0.34-2.14,0.36-2.24c0.16-1.04,0.36-2.08,0.6-3.11
					c0.62-2.64,1.48-5.23,2.63-7.69c2.19-4.69,5.48-8.78,9.72-11.76c2.33-1.64,4.93-2.92,7.61-3.88c1.17-0.42,2.35-0.78,3.55-1.11
					c0.16-0.04,2.61-0.51,2.58-0.73C7165.69,7028.46,7165.51,7028.44,7165.22,7028.45
					C7165.16,7028.46,7165.51,7028.44,7165.22,7028.45z"/>
			</g>
		</g>
	</g>
	<g>
		<g>
			<g>
				<path class="st0" d="M7208.65,7028.72c4.56,1.1,9.01,2.6,12.92,5.25c4.29,2.91,7.63,6.93,9.89,11.58
					c1.21,2.49,2.12,5.13,2.77,7.83c0.26,1.1,0.48,2.2,0.65,3.32c0.02,0.1,0.2,2.33,0.37,2.34c0.42,0.02,0.16-4.83,0.13-5.26
					c-0.23-2.7-0.79-5.38-1.71-7.93c-1.76-4.91-4.85-9.24-9.09-12.3c-0.86-0.62-1.75-1.18-2.68-1.69c-2.45-1.32-5.12-2.25-7.85-2.8
					c-1.11-0.22-2.23-0.38-3.36-0.5c-0.11-0.01-2.46-0.26-2.48-0.06C7208.2,7028.58,7208.37,7028.65,7208.65,7028.72
					C7208.7,7028.74,7208.37,7028.65,7208.65,7028.72z"/>
			</g>
		</g>
	</g>
	<g>
		<g>
			<g>
				<path class="st0" d="M7237.39,7089.62c-1.69-0.42-3.38-0.84-5.07-1.26c-2.6-0.65-5.23-1.14-7.87-1.63
					c-5.49-1.02-11.02-1.75-16.58-2.25c-10.61-0.95-21.33-1.22-31.97-0.62c-11,0.62-21.94,1.75-32.8,3.69
					c-0.16,0.03-5.64,0.98-5.6,1.21c0.03,0.17,3.99-0.39,4.1-0.41c2.65-0.3,5.3-0.56,7.95-0.8c5.47-0.5,10.96-0.9,16.44-1.16
					c10.8-0.52,21.59-0.7,32.4-0.4c5.25,0.15,10.5,0.4,15.74,0.87c5.55,0.49,11.13,0.99,16.63,1.92c1.67,0.28,3.33,0.57,5,0.84
					c0.18,0.03,2.56,0.5,2.6,0.34C7238.39,7089.9,7238.01,7089.77,7237.39,7089.62C7237.27,7089.59,7238.01,7089.77,7237.39,7089.62
					z"/>
			</g>
		</g>
	</g>
	<g>
		<path class="st0" d="M7122.19,7066.67c4.45-1.55,9.11-2.5,13.74-3.3c5.31-0.92,10.66-1.56,16.02-2.03
			c10.5-0.92,21.04-1.17,31.58-1.04c1.14,0.01,2.28,0.03,3.42,0.04c-9.58,0.51-19.12,1.16-28.64,2.39
			c-10.39,1.34-20.85,3.16-30.82,6.45c-1.42,0.47-2.81,0.99-4.17,1.59L7122.19,7066.67z"/>
	</g>
	<g>
		<path class="st1" d="M7221.96,7121.11c0.05,0.09-1.09,1.46-1.36,1.78c-2.5,3.05-5.1,6.09-7.66,9.1
			c-3.57,4.34-7.07,8.75-10.61,13.12c-3.27,4.12-6.48,8.3-9.72,12.45c-0.85,1.1-1.78,2.3-2.66,3.44c-0.94,1.23-1.8,2.37-2.63,3.46
			c-0.66,0.85-1.39,1.8-2.12,2.75c-3.11,4.02-6.23,8.03-9.29,12.09c-3.07,4.05-6.16,8.09-9.2,12.17c-2.82,3.77-5.39,7.2-8.9,11.89
			c-0.93,1.24-1.86,2.48-2.8,3.7c-0.22,0.29-1.05,1.37-1.13,1.35c-0.08-0.02,0.64-1.12,0.83-1.41c0.8-1.24,1.66-2.5,2.51-3.75
			c2.73-4.01,5.56-8.02,8.4-12.01c2.94-4.16,5.96-8.29,8.98-12.42c3.01-4.14,6.09-8.23,9.18-12.32c0.82-1.08,1.6-2.11,2.27-3
			c0.8-1.04,1.65-2.14,2.66-3.44c0.85-1.06,1.79-2.25,2.71-3.4c3.3-4.11,6.57-8.23,9.92-12.29c3.62-4.31,7.22-8.63,10.9-12.85
			c2.67-2.96,5.37-5.95,8.05-8.78C7220.6,7122.43,7221.91,7121.02,7221.96,7121.11z"/>
	</g>
	<g>
		<path class="st1" d="M7175.92,7290.47c3.06-4.06,6.18-8.07,9.29-12.09c0.73-0.94,1.46-1.89,2.12-2.75
			c0.83-1.09,1.69-2.22,2.63-3.46c0.88-1.14,1.8-2.33,2.66-3.44c3.24-4.15,6.44-8.33,9.72-12.45c3.54-4.37,7.04-8.77,10.61-13.12
			c2.56-3.01,5.17-6.05,7.66-9.1c0.26-0.32,1.4-1.69,1.36-1.78c-0.05-0.1-1.36,1.31-1.65,1.62c-2.68,2.82-5.38,5.82-8.05,8.78
			c-3.68,4.22-7.27,8.54-10.9,12.85c-3.35,4.05-6.62,8.18-9.92,12.29c-0.92,1.15-1.87,2.34-2.71,3.4c-1.01,1.31-1.86,2.41-2.66,3.44
			c-0.67,0.89-1.46,1.92-2.27,3c-3.09,4.09-6.17,8.18-9.18,12.32c-2.28,3.12-4.55,6.23-6.8,9.36c0.44,0.03,0.89,0.05,1.33,0.08
			C7171.39,7296.44,7173.66,7293.46,7175.92,7290.47z"/>
	</g>
	<g>
		<path class="st1" d="M7157.23,7110.48c-0.85,1.25-1.71,2.5-2.51,3.75c-0.19,0.29-0.91,1.39-0.83,1.41
			c0.08,0.02,0.91-1.06,1.13-1.35c0.94-1.22,1.88-2.46,2.8-3.7c2.46-3.29,4.46-5.96,6.41-8.56c-0.39,0.03-0.79,0.05-1.18,0.08
			C7161.08,7104.9,7159.13,7107.69,7157.23,7110.48z"/>
	</g>
	<g>
		<g>
			<g>
				<g>
					<path class="st0" d="M7243.08,7324.27c-0.14,0.03-1.94,0.39-4.6,0.93c-1.52,0.27-3.28,0.59-5.18,0.93
						c-1,0.2-2.09,0.33-3.23,0.52c-1.19,0.18-2.4,0.37-3.62,0.56c-5.96,0.85-12.05,1.49-18.1,1.95c-7.57,0.56-15.09,0.79-22.32,0.76
						c-1.81,0.01-3.63-0.05-5.48-0.08c-1.84-0.04-3.69-0.12-5.56-0.18c-3.73-0.18-7.5-0.38-11.28-0.71
						c-6.04-0.48-12.13-1.19-18.09-2.07c-5.08-0.75-9.17-1.53-12.01-2.11c-2.85-0.58-4.45-0.98-4.58-1.01
						c-0.72-0.17-1.17-0.25-1.19-0.2c-0.02,0.05,0.41,0.24,1.11,0.46c0.13,0.04,1.7,0.56,4.52,1.32c2.81,0.76,6.87,1.78,11.93,2.77
						c5.94,1.17,12.04,2.11,18.12,2.76c3.8,0.43,7.6,0.71,11.36,0.94c1.88,0.09,3.75,0.19,5.61,0.24c1.86,0.04,3.7,0.11,5.52,0.1
						c7.3,0.04,14.89-0.3,22.51-1.07c6.08-0.62,12.19-1.5,18.14-2.63c1.27-0.25,2.47-0.51,3.61-0.74c1.14-0.25,2.22-0.44,3.21-0.7
						c1.89-0.46,3.63-0.88,5.13-1.24c2.63-0.72,4.4-1.21,4.54-1.25c0.72-0.2,1.15-0.36,1.13-0.41
						C7244.26,7324.08,7243.81,7324.13,7243.08,7324.27z"/>
				</g>
			</g>
		</g>
	</g>
	<g>
		<g>
			<g>
				<g>
					<path class="st0" d="M7208.74,7372.69c4.61-0.27,9.11-1.2,13.22-3.42c4.51-2.45,8.15-6.27,10.44-10.86
						c2.26-4.54,3.34-9.73,3.13-14.79c0-0.09-0.02-1.53-0.21-1.52c-0.17,0.01-0.34,2.14-0.36,2.24c-0.16,1.04-0.36,2.08-0.6,3.11
						c-0.62,2.64-1.48,5.23-2.63,7.69c-2.21,4.74-5.54,8.86-9.85,11.85c-2.3,1.6-4.85,2.85-7.49,3.79
						c-1.17,0.42-2.35,0.78-3.55,1.11c-0.16,0.04-2.61,0.51-2.58,0.73C7208.29,7372.73,7208.69,7372.7,7208.74,7372.69
						c-0.04,0-0.08,0-0.11,0.01C7208.67,7372.7,7208.71,7372.69,7208.74,7372.69C7208.8,7372.69,7208.46,7372.71,7208.74,7372.69z"
						/>
				</g>
			</g>
		</g>
	</g>
	<g>
		<g>
			<g>
				<g>
					<path class="st0" d="M7165.32,7372.42c-4.56-1.09-9.02-2.6-12.92-5.25c-4.29-2.91-7.63-6.93-9.89-11.58
						c-1.21-2.49-2.12-5.13-2.77-7.83c-0.26-1.1-0.48-2.2-0.65-3.32c-0.02-0.1-0.2-2.33-0.37-2.34c-0.42-0.02-0.16,4.83-0.13,5.26
						c0.23,2.7,0.79,5.37,1.71,7.93c1.76,4.91,4.85,9.24,9.09,12.3c0.86,0.62,1.75,1.18,2.68,1.69c2.45,1.32,5.12,2.25,7.85,2.8
						c1.11,0.22,2.23,0.38,3.36,0.5c0.11,0.01,2.46,0.26,2.48,0.06C7165.76,7372.57,7165.6,7372.49,7165.32,7372.42
						C7165.26,7372.41,7165.6,7372.49,7165.32,7372.42z"/>
				</g>
			</g>
		</g>
	</g>
	<g>
		<g>
			<g>
				<g>
					<path class="st0" d="M7136.57,7311.53c1.69,0.42,3.38,0.84,5.07,1.26c2.6,0.65,5.23,1.14,7.87,1.63
						c5.49,1.02,11.02,1.75,16.58,2.25c10.61,0.95,21.33,1.22,31.97,0.62c11-0.62,21.95-1.75,32.8-3.69
						c0.16-0.03,5.64-0.98,5.6-1.21c-0.03-0.17-3.99,0.39-4.1,0.41c-2.65,0.3-5.3,0.56-7.95,0.8c-5.47,0.5-10.96,0.9-16.44,1.16
						c-10.8,0.52-21.59,0.7-32.4,0.4c-5.25-0.15-10.5-0.4-15.74-0.87c-5.55-0.49-11.13-0.99-16.63-1.92c-1.67-0.28-3.33-0.57-5-0.84
						c-0.18-0.03-2.56-0.5-2.6-0.34C7135.58,7311.24,7135.95,7311.37,7136.57,7311.53
						C7136.7,7311.56,7135.95,7311.37,7136.57,7311.53z"/>
				</g>
			</g>
		</g>
	</g>
	<g>
		<path class="st0" d="M7251.78,7334.47c-4.45,1.55-9.11,2.5-13.74,3.3c-5.31,0.92-10.66,1.56-16.02,2.03
			c-10.5,0.92-21.04,1.17-31.58,1.04c-1.14-0.01-2.28-0.03-3.42-0.04c9.58-0.51,19.12-1.16,28.63-2.39
			c10.39-1.34,20.85-3.16,30.82-6.45c1.42-0.47,2.81-0.99,4.17-1.59L7251.78,7334.47z"/>
	</g>
	<g>
		<path class="st0" d="M7139.19,7295.45c0.25,0.32,2.39,1.97,20.38,3.46c11,0.91,22.64,1.32,27.4,1.32c4.85,0,16.55-0.4,27.4-1.28
			c18.01-1.47,20.13-3.15,20.37-3.47c-0.02,0.02-0.07,0.12-0.06,0.26l2.16-0.18l0.67,7.99c0.03,0.35-0.04,0.87-0.52,1.39
			c-0.66,0.72-2.42,2.62-22.86,4.23c-10.86,0.85-22.43,1.23-27.17,1.23c-4.58,0-46.08-1.19-50.04-5.49
			c-0.47-0.51-0.53-1.02-0.5-1.36l0.67-7.99l2.16,0.18C7139.26,7295.58,7139.21,7295.47,7139.19,7295.45z M7186.96,7302.39
			c-4.79,0-16.51-0.41-27.58-1.33c-12.18-1.01-17.79-2.09-20.32-3.18l-0.47,5.63c0.55,0.46,3.67,2.02,21.13,3.42
			c11.04,0.89,22.57,1.29,27.24,1.29c4.77,0,16.38-0.39,27.26-1.25c17.55-1.39,20.59-2.98,21.11-3.44l-0.47-5.62
			c-1.17,0.52-2.88,0.97-5.25,1.4c-3.63,0.67-8.69,1.27-15.07,1.79C7203.63,7301.99,7191.85,7302.39,7186.96,7302.39z"/>
	</g>
	<g>
		<path class="st0" d="M7137.86,7297.59c9.2,1.72,18.45,3.15,27.74,4.22c10.59,1.22,21.27,2.03,31.94,1.48
			c1.56-0.08,3.13-0.29,4.69-0.43c-1.87,0.3-3.73,0.64-5.61,0.84c-2.44,0.25-4.87,0.49-7.31,0.62c-5.31,0.29-10.65,0.3-15.97,0.17
			c-10.54-0.26-21.06-1.06-31.54-2.2c-1.54-0.17-3.07-0.36-4.61-0.54L7137.86,7297.59z"/>
	</g>
	<path class="st1" d="M7186.96,7098.8c4.6,0,15.97,0.39,26.81,1.27c13.84,1.11,18.99,2.34,21.08,3.23l0.47-5.62
		c-0.55-0.46-3.67-2.02-21.13-3.42c-11.04-0.89-22.57-1.29-27.24-1.29c-4.77,0-16.38,0.39-27.26,1.25
		c-17.55,1.39-20.59,2.98-21.11,3.44l0.47,5.61c2.08-0.9,7.23-2.15,21.12-3.25C7170.87,7099.18,7182.28,7098.8,7186.96,7098.8z"/>
	<g>
		<path class="st0" d="M7234.74,7105.74c-0.25-0.32-2.39-1.97-20.38-3.46c-11-0.91-22.64-1.32-27.4-1.32
			c-4.85,0-16.55,0.4-27.4,1.28c-18.01,1.47-20.13,3.15-20.37,3.47c0.02-0.02,0.07-0.12,0.06-0.26l-2.16,0.18l-0.67-7.99
			c-0.03-0.35,0.04-0.87,0.52-1.39c0.66-0.72,2.42-2.62,22.86-4.22c10.86-0.85,22.43-1.23,27.17-1.23c4.58,0,46.08,1.19,50.04,5.49
			c0.47,0.51,0.53,1.02,0.5,1.36l-0.67,7.99l-2.16-0.18C7234.66,7105.61,7234.72,7105.71,7234.74,7105.74z M7186.96,7098.8
			c4.79,0,16.51,0.41,27.58,1.33c12.18,1.01,17.79,2.09,20.32,3.18l0.47-5.63c-0.55-0.46-3.67-2.02-21.13-3.42
			c-11.04-0.89-22.57-1.29-27.24-1.29c-4.77,0-16.38,0.39-27.26,1.25c-17.55,1.39-20.59,2.98-21.1,3.44l0.47,5.62
			c1.17-0.52,2.88-0.97,5.25-1.41c3.63-0.67,8.69-1.27,15.07-1.79C7170.29,7099.2,7182.08,7098.8,7186.96,7098.8z"/>
	</g>
	<g>
		<path class="st0" d="M7236.1,7103.56c-9.2-1.72-18.45-3.15-27.74-4.22c-10.59-1.22-21.27-2.03-31.94-1.48
			c-1.56,0.08-3.13,0.29-4.69,0.43c1.87-0.3,3.73-0.64,5.61-0.84c2.44-0.25,4.87-0.49,7.31-0.62c5.31-0.29,10.65-0.3,15.97-0.17
			c10.54,0.26,21.06,1.06,31.54,2.2c1.54,0.17,3.07,0.36,4.61,0.54L7236.1,7103.56z"/>
	</g>
</g>
</svg>
