<svg id="Layer_1" data-name="Layer 1" xmlns="http://www.w3.org/2000/svg" viewBox="0 0 117.89 320.85"><defs><style>.cls-1{fill:#282828;}.cls-2{fill:#fff;}.cls-3{fill:#e25241;}.cls-4{fill:#0887dd;}</style></defs><title>barbershop-thing-colored</title><path class="cls-1" d="M7200,7280.45c4.44,0,15.44.15,25.31.72,17.74,1,19.35,2.59,19.47,4.09a1.61,1.61,0,0,1-.46,1.26c-.6.64-2.18,2.35-20.28,3.78-9.59.76-19.83,1.1-24,1.1s-14.33-.35-24.08-1.13c-18.11-1.46-19.66-3.14-20.24-3.78a1.55,1.55,0,0,1-.46-1.23c.12-1.53,1.73-3.11,19.48-4.12C7184.27,7280.6,7195.11,7280.45,7200,7280.45Zm42.61,5c-1-.5-4.6-1.6-18.49-2.36-9.57-.53-20-.66-24.12-.66-23.67,0-40,1.51-42.62,3,.92.53,4.51,1.78,18.5,2.92,9.74.79,20,1.15,24.12,1.15s14.53-.35,24.14-1.12C7238.11,7287.23,7241.69,7286,7242.61,7285.42Z" transform="translate(-7141.06 -7039.58)"/><path class="cls-1" d="M7200,7119.55c-4.44,0-15.44-.15-25.31-.72-17.74-1-19.35-2.59-19.47-4.09a1.61,1.61,0,0,1,.46-1.26c.6-.64,2.18-2.35,20.28-3.78,9.59-.76,19.83-1.1,24-1.1s14.34.35,24.08,1.13c18.11,1.46,19.66,3.14,20.24,3.78a1.55,1.55,0,0,1,.46,1.23c-.12,1.53-1.73,3.11-19.48,4.12C7215.73,7119.41,7204.89,7119.55,7200,7119.55Zm-42.61-5c1,.5,4.6,1.6,18.49,2.36,9.57.53,20,.66,24.12.66,23.67,0,40-1.51,42.62-3-.92-.53-4.51-1.78-18.5-2.92-9.74-.79-20-1.15-24.12-1.15s-14.53.35-24.14,1.12C7161.89,7112.77,7158.31,7114,7157.39,7114.58Z" transform="translate(-7141.06 -7039.58)"/><rect class="cls-2" x="19.02" y="68.13" width="80.22" height="184.58"/><path class="cls-2" d="M7200,7289.46c4.24,0,14.53-.35,24.14-1.12,14-1.11,17.55-2.38,18.47-2.92-1-.5-4.61-1.6-18.49-2.36-9.57-.53-20-.66-24.12-.66-23.67,0-40,1.51-42.62,3,.92.53,4.51,1.78,18.5,2.92C7185.62,7289.1,7195.85,7289.46,7200,7289.46Z" transform="translate(-7141.06 -7039.58)"/><path class="cls-2" d="M7200,7101.42c4,0,39,1,44.48,4.56a9.24,9.24,0,0,0,2.61-.86c-.85-.56-4.51-2-20.41-3.29-10.77-.88-22.08-1.27-26.68-1.27s-16.09.38-26.7,1.23c-16,1.28-19.58,2.78-20.38,3.32a9.43,9.43,0,0,0,2.58.83c1.09-.79,4.64-2.2,20.11-3.41C7185.36,7101.76,7195.74,7101.42,7200,7101.42Z" transform="translate(-7141.06 -7039.58)"/><path class="cls-2" d="M7164.75,7072.51a275.48,275.48,0,0,1,35.2-2.57h.05a280.61,280.61,0,0,1,31.85,2.24l1,.12c5.7.65,10.38,1.35,14.12,2.15l-.39-7.77c-.71-13.87-13.21-25.16-27.89-25.16h-37.36c-14.68,0-27.18,11.29-27.89,25.16l-.39,7.69c3.46-.73,7.34-1.31,11.2-1.8Z" transform="translate(-7141.06 -7039.58)"/><path class="cls-2" d="M7247.66,7093a140.34,140.34,0,0,0-15.07-2.35l-1-.11a279,279,0,0,0-31.61-2.21h0a275.29,275.29,0,0,0-34.95,2.53l-.51.07a118.11,118.11,0,0,0-13.28,2.29c-7.42,1.88-8.21,3.72-8.2,4.42s.79,2.45,7.5,4.34l-.38-4.61a1.63,1.63,0,0,1,.48-1.29c3.9-4.24,44.1-5.37,49.38-5.37,4.53,0,45.5,1.17,49.39,5.39a1.63,1.63,0,0,1,.47,1.27l-.39,4.72c6.75-1.91,7.51-3.72,7.51-4.43S7256.07,7094.94,7247.66,7093Z" transform="translate(-7141.06 -7039.58)"/><path class="cls-2" d="M7247.68,7076.58a145.46,145.46,0,0,0-15.06-2.35l-1-.11a274.9,274.9,0,0,0-31.62-2.23H7200a273.35,273.35,0,0,0-34.95,2.55l-.51.06a118.08,118.08,0,0,0-13.28,2.3c-7.43,1.87-8.21,3.7-8.21,4.4,0,4.42,0,8.82,0,13.23,3.79-2.82,12.58-4.33,21.23-5.43l.51-.07a277.55,277.55,0,0,1,35.2-2.55h0a282.47,282.47,0,0,1,31.84,2.22l1,.12a144.47,144.47,0,0,1,15.29,2.38c4.21,1,7.14,2.07,8.88,3.35q0-6.61,0-13.24C7257,7080.47,7256.08,7078.51,7247.68,7076.58Z" transform="translate(-7141.06 -7039.58)"/><path class="cls-2" d="M7200,7092.66c-4.75,0-16.28.38-27.07,1.24-17.65,1.4-20.41,3-20.84,3.45l.48,5.74c2-.88,7-2.16,21-3.27,10.56-.83,21.83-1.21,26.46-1.21,4.15,0,39.46,1,47.43,4.55l.48-5.79c-.46-.44-3.31-2-20.87-3.43C7216.1,7093.05,7204.64,7092.66,7200,7092.66Z" transform="translate(-7141.06 -7039.58)"/><path class="cls-2" d="M7200,7110.54c-4.24,0-14.53.35-24.14,1.12-14,1.11-17.55,2.38-18.47,2.92,1,.5,4.61,1.6,18.49,2.36,9.57.53,20,.66,24.12.66,23.67,0,40-1.51,42.62-3-.92-.53-4.51-1.78-18.5-2.92C7214.38,7110.9,7204.15,7110.54,7200,7110.54Z" transform="translate(-7141.06 -7039.58)"/><path class="cls-1" d="M7153,7075.65l-1.94-.1.45-9c.75-14.89,14.13-27,29.83-27h37.36c15.7,0,29.08,12.11,29.83,27l.42,8.31h-2l-.41-8.22c-.71-13.87-13.21-25.16-27.89-25.16h-37.36c-14.68,0-27.18,11.29-27.89,25.16Z" transform="translate(-7141.06 -7039.58)"/><path class="cls-1" d="M7258.92,7097.66H7257q0-8.22,0-16.44c0-.74-.92-2.7-9.32-4.63a145.46,145.46,0,0,0-15.06-2.35l-1-.11a274.9,274.9,0,0,0-31.62-2.23H7200a273.35,273.35,0,0,0-34.95,2.55l-.51.06a118.08,118.08,0,0,0-13.28,2.3c-7.43,1.87-8.21,3.7-8.21,4.4q0,8.23,0,16.45h-2q0-8.22,0-16.44c-.05-5,11.69-7.18,23.18-8.65l.51-.06a275.48,275.48,0,0,1,35.2-2.57h.05a280.61,280.61,0,0,1,31.85,2.24l1,.12c18.28,2.09,26.09,4.75,26.1,8.91Q7258.94,7089.45,7258.92,7097.66Z" transform="translate(-7141.06 -7039.58)"/><path class="cls-1" d="M7249,7104.25l-.49-1.88c7.69-2,8.52-4,8.52-4.71s-.91-2.72-9.32-4.66a140.34,140.34,0,0,0-15.07-2.35l-1-.11a279,279,0,0,0-31.61-2.21h0a275.29,275.29,0,0,0-34.95,2.53l-.51.07a118.11,118.11,0,0,0-13.28,2.29c-7.42,1.88-8.21,3.72-8.2,4.42s.88,2.65,8.73,4.67l-.48,1.88c-6.93-1.77-10.16-3.85-10.2-6.52,0-5,11.69-7.2,23.18-8.67l.51-.07a277.55,277.55,0,0,1,35.2-2.55h0a282.47,282.47,0,0,1,31.84,2.22l1,.12a144.47,144.47,0,0,1,15.29,2.38c7.38,1.7,10.82,3.79,10.82,6.55S7255.67,7102.49,7249,7104.25Z" transform="translate(-7141.06 -7039.58)"/><path class="cls-1" d="M7249.2,7105.27l-1.94-.17.65-7.73c-.46-.44-3.31-2-20.87-3.43-10.94-.89-22.4-1.28-27-1.28s-16.28.38-27.07,1.24c-17.65,1.4-20.41,3-20.84,3.45l.65,7.75-1.94.17-.66-7.9a1.63,1.63,0,0,1,.48-1.29c3.9-4.24,44.1-5.37,49.38-5.37,4.53,0,45.5,1.17,49.39,5.39a1.63,1.63,0,0,1,.47,1.27Z" transform="translate(-7141.06 -7039.58)"/><path class="cls-1" d="M7244.34,7108l-.39-1.91a10.45,10.45,0,0,0,3.13-1c-.84-.56-4.5-2-20.41-3.29-10.76-.88-22.07-1.27-26.67-1.27s-16.09.38-26.7,1.23c-16,1.28-19.58,2.78-20.38,3.32a11.15,11.15,0,0,0,3.3,1l-.38,1.91c-3.48-.68-4.94-1.48-5-2.73a1.67,1.67,0,0,1,.48-1.31c.59-.64,2.37-2.57,22.26-4.14,10.56-.83,21.83-1.21,26.46-1.21,4.46,0,44.85,1.17,48.73,5.38a1.63,1.63,0,0,1,.47,1.28C7249.1,7106.52,7247.69,7107.32,7244.34,7108Z" transform="translate(-7141.06 -7039.58)"/><path class="cls-2" d="M7200,7291.4c-4.13,0-14.34-.35-24.08-1.13-12.42-1-17.05-2.11-18.92-2.91l-.43,5c.5.42,3.3,1.82,19,3.08,9.91.8,20.27,1.15,24.46,1.15s14.71-.34,24.48-1.12c15.76-1.24,18.48-2.67,19-3.09l-.42-5c-1.87.81-6.5,1.93-19,2.91C7214.45,7291.06,7204.21,7291.4,7200,7291.4Z" transform="translate(-7141.06 -7039.58)"/><path class="cls-2" d="M7200,7298.58c-4,0-39-1-44.48-4.56a9.24,9.24,0,0,0-2.61.86c.85.56,4.51,2,20.41,3.29,10.77.88,22.08,1.27,26.68,1.27s16.09-.38,26.7-1.23c16-1.28,19.58-2.78,20.38-3.32a9.43,9.43,0,0,0-2.58-.83c-1.09.79-4.64,2.2-20.11,3.41C7214.64,7298.24,7204.26,7298.58,7200,7298.58Z" transform="translate(-7141.06 -7039.58)"/><path class="cls-2" d="M7235.25,7327.49a275.48,275.48,0,0,1-35.2,2.57H7200a280.61,280.61,0,0,1-31.85-2.24l-1-.12c-5.7-.65-10.38-1.35-14.12-2.15l.39,7.77c.71,13.87,13.21,25.16,27.89,25.16h37.36c14.68,0,27.18-11.29,27.89-25.16l.38-7.69c-3.45.73-7.33,1.31-11.19,1.8Z" transform="translate(-7141.06 -7039.58)"/><path class="cls-2" d="M7152.34,7307a140.34,140.34,0,0,0,15.07,2.35l1,.11a279,279,0,0,0,31.61,2.21h0a275.29,275.29,0,0,0,34.95-2.53l.51-.07a118.11,118.11,0,0,0,13.28-2.29c7.42-1.88,8.21-3.72,8.2-4.42s-.79-2.45-7.5-4.34l.38,4.61a1.66,1.66,0,0,1-.48,1.3c-3.9,4.23-44.1,5.36-49.38,5.36-4.53,0-45.5-1.17-49.39-5.39a1.62,1.62,0,0,1-.47-1.27l.39-4.72c-6.75,1.91-7.51,3.72-7.51,4.43S7143.93,7305.06,7152.34,7307Z" transform="translate(-7141.06 -7039.58)"/><path class="cls-2" d="M7152.32,7323.42a142.79,142.79,0,0,0,15.06,2.35l1,.11a274.9,274.9,0,0,0,31.62,2.23h.05a273.35,273.35,0,0,0,34.95-2.55l.51-.06a118.08,118.08,0,0,0,13.28-2.3c7.43-1.87,8.21-3.7,8.21-4.4,0-4.42,0-8.82,0-13.23-3.79,2.82-12.58,4.33-21.23,5.43l-.51.07a277.55,277.55,0,0,1-35.2,2.55h0a282.47,282.47,0,0,1-31.84-2.22l-1-.12a144.47,144.47,0,0,1-15.29-2.38c-4.21-1-7.14-2.07-8.88-3.35q0,6.61,0,13.24C7143,7319.53,7143.92,7321.49,7152.32,7323.42Z" transform="translate(-7141.06 -7039.58)"/><path class="cls-2" d="M7200,7307.34c4.75,0,16.28-.38,27.07-1.24,17.65-1.4,20.41-3,20.84-3.45l-.48-5.74c-2,.88-7,2.16-21,3.27-10.56.83-21.83,1.21-26.46,1.21-4.15,0-39.46-1-47.43-4.55l-.48,5.79c.46.44,3.31,2,20.87,3.43C7183.9,7307,7195.36,7307.34,7200,7307.34Z" transform="translate(-7141.06 -7039.58)"/><path class="cls-1" d="M7247,7324.35l1.94.1-.45,9c-.75,14.89-14.13,27-29.83,27h-37.36c-15.7,0-29.08-12.11-29.83-27l-.42-8.31h2l.41,8.22c.71,13.87,13.21,25.16,27.89,25.16h37.36c14.68,0,27.18-11.29,27.89-25.16Z" transform="translate(-7141.06 -7039.58)"/><path class="cls-1" d="M7141.08,7302.34H7143q0,8.22,0,16.44c0,.74.92,2.7,9.32,4.63a142.79,142.79,0,0,0,15.06,2.35l1,.11a274.9,274.9,0,0,0,31.62,2.23h.05a273.35,273.35,0,0,0,34.95-2.55l.51-.06a118.08,118.08,0,0,0,13.28-2.3c7.43-1.87,8.21-3.7,8.21-4.4q0-8.23,0-16.45h2q0,8.22,0,16.44c.05,5-11.69,7.18-23.18,8.65l-.51.06a275.48,275.48,0,0,1-35.2,2.57H7200a280.61,280.61,0,0,1-31.85-2.24l-1-.12c-18.28-2.09-26.09-4.75-26.1-8.91Q7141.06,7310.56,7141.08,7302.34Z" transform="translate(-7141.06 -7039.58)"/><path class="cls-1" d="M7151.05,7295.75l.49,1.88c-7.69,2-8.52,4-8.52,4.71s.91,2.72,9.32,4.66a140.34,140.34,0,0,0,15.07,2.35l1,.11a279,279,0,0,0,31.61,2.21h0a275.29,275.29,0,0,0,34.95-2.53l.51-.07a118.11,118.11,0,0,0,13.28-2.29c7.42-1.88,8.21-3.72,8.2-4.42s-.88-2.65-8.73-4.67l.48-1.88c6.93,1.77,10.17,3.85,10.2,6.53,0,5-11.69,7.19-23.18,8.66l-.51.07a277.55,277.55,0,0,1-35.2,2.55h0a282.47,282.47,0,0,1-31.84-2.22l-1-.12a144.47,144.47,0,0,1-15.29-2.38c-7.38-1.7-10.82-3.79-10.82-6.55S7144.33,7297.51,7151.05,7295.75Z" transform="translate(-7141.06 -7039.58)"/><path class="cls-1" d="M7150.8,7294.73l1.94.17-.65,7.73c.46.44,3.31,2,20.87,3.43,10.94.89,22.4,1.28,27,1.28s16.28-.38,27.07-1.24c17.65-1.4,20.41-3,20.84-3.45l-.65-7.75,1.94-.17.66,7.9a1.66,1.66,0,0,1-.48,1.3c-3.9,4.23-44.1,5.36-49.38,5.36-4.53,0-45.5-1.17-49.39-5.39a1.62,1.62,0,0,1-.47-1.27Z" transform="translate(-7141.06 -7039.58)"/><path class="cls-1" d="M7155.66,7292l.39,1.91a10.45,10.45,0,0,0-3.13,1c.84.56,4.5,2,20.41,3.29,10.76.88,22.07,1.27,26.67,1.27s16.09-.38,26.7-1.23c16-1.28,19.58-2.78,20.38-3.32a11.15,11.15,0,0,0-3.3-1l.38-1.91c3.48.68,4.94,1.48,5,2.73a1.67,1.67,0,0,1-.48,1.31c-.59.64-2.37,2.57-22.26,4.14-10.56.83-21.83,1.21-26.46,1.21-4.46,0-44.85-1.17-48.73-5.38a1.63,1.63,0,0,1-.47-1.28C7150.9,7293.48,7152.31,7292.68,7155.66,7292Z" transform="translate(-7141.06 -7039.58)"/><rect class="cls-1" x="98.26" y="72.89" width="1.95" height="174.95"/><rect class="cls-1" x="17.75" y="72.89" width="1.95" height="174.95"/><path class="cls-2" d="M7200.05,7290.39c4.46,0,15-.37,24.68-1.15,3.2-.26,6.31-.57,9.05-.93v-175.7c-2.74-.36-5.85-.67-9.05-.94-9.65-.79-20.22-1.19-24.68-1.19s-15,.37-24.68,1.16c-3.22.26-6.34.57-9.09.93v175.7c2.75.35,5.87.67,9.09.93C7185,7290,7195.59,7290.39,7200.05,7290.39Z" transform="translate(-7141.06 -7039.58)"/><path class="cls-3" d="M7175.37,7111.64c-3.22.26-6.34.57-9.09.93v42.94c14.14-13.76,26.63-29.2,38.84-44.93-2.07-.06-3.82-.1-5.07-.1C7195.59,7110.48,7185,7110.85,7175.37,7111.64Z" transform="translate(-7141.06 -7039.58)"/><path class="cls-4" d="M7166.28,7202.79V7256c25.16-24.48,45.09-54.27,67.5-81.55v-53.21C7208.62,7145.72,7188.68,7175.51,7166.28,7202.79Z" transform="translate(-7141.06 -7039.58)"/><path class="cls-3" d="M7221.54,7289.48c4-5.17,8.09-10.31,12.24-15.36v-53.21c-21.17,20.6-38.64,44.95-57,68.41,9.24.72,19,1.07,23.26,1.07C7204,7290.39,7212.84,7290.1,7221.54,7289.48Z" transform="translate(-7141.06 -7039.58)"/><path class="cls-1" d="M7149.65,7088.91a243.4,243.4,0,0,1,56.75-5,256.8,256.8,0,0,1,30.46,2.59q4.92.72,9.8,1.68c1.41.28,2.81.57,4.22.89a13.32,13.32,0,0,0,2.25.45c.09-.3-7.91-2.34-8.61-2.51-4.64-1.14-9.33-2.05-14.05-2.8a193,193,0,0,0-60.69,0c-4.2.67-8.4,1.48-12.53,2.48-.54.13-8.74,2.08-8.68,2.35a3.1,3.1,0,0,0,1.08-.13Z" transform="translate(-7141.06 -7039.58)"/><path class="cls-1" d="M7180.48,7045.44a28.07,28.07,0,0,0-11.87,3.07,22.56,22.56,0,0,0-9.38,9.74,27.51,27.51,0,0,0-2.8,13.28c0,.08,0,1.38.19,1.37a9.82,9.82,0,0,0,.32-2c.14-.94.32-1.87.53-2.79a35,35,0,0,1,2.37-6.91,26.49,26.49,0,0,1,8.72-10.56,28.82,28.82,0,0,1,6.84-3.48c1.05-.38,2.11-.7,3.18-1a9.84,9.84,0,0,0,2.32-.65c0-.05-.16-.08-.42-.06Z" transform="translate(-7141.06 -7039.58)"/><path class="cls-1" d="M7219.47,7045.68a35,35,0,0,1,11.6,4.71,26.48,26.48,0,0,1,8.88,10.41,33.71,33.71,0,0,1,2.49,7c.24,1,.43,2,.59,3a10,10,0,0,0,.33,2.1c.38,0,.15-4.34.12-4.72a28.38,28.38,0,0,0-1.54-7.12,22.42,22.42,0,0,0-10.57-12.55,24.94,24.94,0,0,0-7.05-2.51c-1-.2-2-.34-3-.45a8.84,8.84,0,0,0-2.23-.05c0,.05.14.12.39.18Z" transform="translate(-7141.06 -7039.58)"/><path class="cls-1" d="M7245.28,7100.36l-4.55-1.13c-2.34-.58-4.7-1-7.07-1.46-4.92-.92-9.89-1.58-14.88-2a196.55,196.55,0,0,0-28.71-.56,244.78,244.78,0,0,0-29.45,3.31c-.14,0-5.06.87-5,1.09a30,30,0,0,0,3.68-.37c2.38-.27,4.76-.5,7.14-.72,4.91-.45,9.84-.8,14.76-1,9.7-.47,19.39-.63,29.1-.36,4.71.13,9.43.36,14.13.78,5,.44,10,.89,14.93,1.72l4.49.76a11.36,11.36,0,0,0,2.33.3c0-.05-.32-.16-.88-.3Z" transform="translate(-7141.06 -7039.58)"/><path class="cls-1" d="M7141.84,7079.76a77.82,77.82,0,0,1,12.34-3c4.76-.82,9.57-1.4,14.38-1.82,9.43-.83,18.9-1.05,28.36-.94l3.07,0c-8.6.45-17.17,1-25.71,2.15a148.56,148.56,0,0,0-27.68,5.79c-1.27.42-2.52.89-3.75,1.42Z" transform="translate(-7141.06 -7039.58)"/><path class="cls-2" d="M7231.42,7128.64a14,14,0,0,1-1.22,1.6c-2.24,2.73-4.58,5.46-6.88,8.16-3.2,3.91-6.35,7.86-9.52,11.78-2.94,3.7-5.82,7.46-8.72,11.18l-2.39,3.09c-.84,1.11-1.62,2.13-2.37,3.1l-1.9,2.47c-2.79,3.61-5.59,7.21-8.34,10.86s-5.53,7.26-8.26,10.92l-8,10.68c-.84,1.11-1.68,2.23-2.52,3.32a9.25,9.25,0,0,1-1,1.21,8.87,8.87,0,0,1,.75-1.27c.72-1.11,1.48-2.24,2.25-3.36,2.45-3.61,5-7.2,7.55-10.79s5.35-7.44,8.06-11.15,5.47-7.39,8.24-11.06l2-2.7c.72-.93,1.49-1.91,2.39-3.09l2.44-3.05c3-3.69,5.9-7.39,8.91-11,3.25-3.87,6.48-7.75,9.78-11.54,2.39-2.65,4.82-5.34,7.23-7.88A12.7,12.7,0,0,1,7231.42,7128.64Z" transform="translate(-7141.06 -7039.58)"/><path class="cls-2" d="M7190.08,7280.7c2.75-3.64,5.55-7.24,8.34-10.85l1.9-2.47c.75-1,1.52-2,2.37-3.1l2.39-3.09c2.9-3.73,5.78-7.48,8.72-11.18,3.17-3.92,6.32-7.88,9.52-11.78,2.3-2.7,4.64-5.43,6.88-8.17a13.15,13.15,0,0,0,1.22-1.59,12.7,12.7,0,0,0-1.48,1.45c-2.41,2.54-4.84,5.23-7.23,7.88-3.3,3.79-6.53,7.67-9.78,11.54-3,3.63-6,7.34-8.91,11l-2.44,3.05-2.39,3.09c-.6.8-1.3,1.73-2,2.69-2.77,3.68-5.54,7.35-8.24,11.07-2.05,2.8-4.09,5.59-6.1,8.4l1.19.07Z" transform="translate(-7141.06 -7039.58)"/><path class="cls-2" d="M7173.3,7119.09c-.77,1.12-1.53,2.25-2.25,3.36a8.87,8.87,0,0,0-.75,1.27,9.25,9.25,0,0,0,1-1.21c.84-1.09,1.68-2.21,2.52-3.32l5.75-7.69-1.06.07Q7175.88,7115.32,7173.3,7119.09Z" transform="translate(-7141.06 -7039.58)"/><path class="cls-1" d="M7250.39,7311.05l-4.13.84-4.66.83c-.9.18-1.87.3-2.9.47l-3.25.5c-5.35.76-10.82,1.34-16.25,1.75-6.8.5-13.55.71-20,.68-1.63,0-3.27-.05-4.92-.07s-3.32-.1-5-.16c-3.35-.16-6.74-.34-10.13-.64-5.43-.43-10.9-1.06-16.24-1.85-4.56-.68-8.23-1.38-10.79-1.89s-4-.88-4.11-.91a3.43,3.43,0,0,0-1.07-.18c0,.05.36.21,1,.42.11,0,1.53.5,4.06,1.18s6.16,1.6,10.71,2.49c5.34,1.05,10.82,1.9,16.27,2.48,3.41.39,6.83.64,10.2.85,1.69.08,3.37.17,5,.21s3.32.1,5,.09a193.22,193.22,0,0,0,20.2-1c5.46-.56,10.95-1.35,16.29-2.37,1.14-.22,2.22-.45,3.24-.66s2-.4,2.88-.63l4.61-1.11,4.08-1.12a2.92,2.92,0,0,0,1-.37A3,3,0,0,0,7250.39,7311.05Z" transform="translate(-7141.06 -7039.58)"/><path class="cls-1" d="M7219.56,7354.53a28.13,28.13,0,0,0,11.86-3.07,22.47,22.47,0,0,0,9.38-9.75,27.47,27.47,0,0,0,2.81-13.28c0-.07,0-1.37-.19-1.37a8.62,8.62,0,0,0-.32,2c-.14.94-.32,1.87-.54,2.8a35.13,35.13,0,0,1-2.36,6.9,26.5,26.5,0,0,1-8.84,10.64,29.11,29.11,0,0,1-6.72,3.41c-1.05.37-2.11.69-3.19,1-.14,0-2.34.46-2.32.66s.38.06.43.06h0Z" transform="translate(-7141.06 -7039.58)"/><path class="cls-1" d="M7180.57,7354.28a34.61,34.61,0,0,1-11.61-4.71,26.46,26.46,0,0,1-8.88-10.4,34.35,34.35,0,0,1-2.48-7c-.24-1-.44-2-.59-3a10,10,0,0,0-.34-2.1c-.37,0-.14,4.34-.11,4.72a28,28,0,0,0,1.54,7.12,23,23,0,0,0,8.16,11,20.78,20.78,0,0,0,2.41,1.52,25.63,25.63,0,0,0,7,2.51c1,.2,2,.34,3,.44a8.86,8.86,0,0,0,2.23.06c0-.05-.14-.12-.39-.19Z" transform="translate(-7141.06 -7039.58)"/><path class="cls-1" d="M7154.76,7299.61l4.55,1.13c2.34.58,4.69,1,7.06,1.46,4.93.92,9.9,1.57,14.89,2a197.85,197.85,0,0,0,28.7.56,246.76,246.76,0,0,0,29.46-3.31c.14,0,5.06-.88,5-1.09a28.09,28.09,0,0,0-3.68.36c-2.38.27-4.76.5-7.14.72-4.92.45-9.84.81-14.77,1-9.7.47-19.39.64-29.09.37-4.72-.14-9.43-.37-14.13-.78-5-.45-10-.89-14.93-1.73l-4.49-.76a12.1,12.1,0,0,0-2.33-.3c0,.05.32.17.88.31Z" transform="translate(-7141.06 -7039.58)"/><path class="cls-1" d="M7258.2,7320.21a77.79,77.79,0,0,1-12.34,3c-4.76.83-9.57,1.4-14.39,1.83a282.45,282.45,0,0,1-28.36.93l-3.06,0c8.6-.46,17.16-1,25.71-2.15a149.91,149.91,0,0,0,27.67-5.79c1.28-.42,2.53-.89,3.75-1.43Z" transform="translate(-7141.06 -7039.58)"/><path class="cls-1" d="M7157.1,7285.17c.22.28,2.14,1.76,18.3,3.1,9.88.82,20.33,1.19,24.6,1.19s14.86-.36,24.6-1.15c16.18-1.32,18.08-2.83,18.29-3.12a.42.42,0,0,0-.05.23l1.94-.16.6,7.17a1.6,1.6,0,0,1-.46,1.25c-.6.64-2.17,2.35-20.53,3.79-9.75.77-20.13,1.11-24.39,1.11s-41.38-1.07-44.93-4.93a1.54,1.54,0,0,1-.45-1.22l.6-7.17,1.94.16A.38.38,0,0,0,7157.1,7285.17Zm42.9,6.23c-4.3,0-14.83-.37-24.76-1.19-10.93-.9-16-1.88-18.24-2.86l-.43,5c.5.42,3.3,1.82,19,3.08,9.91.8,20.27,1.15,24.46,1.15s14.71-.34,24.48-1.12c15.76-1.24,18.48-2.67,19-3.09l-.42-5.05a22.37,22.37,0,0,1-4.72,1.27c-3.26.6-7.81,1.14-13.53,1.61C7215,7291,7204.39,7291.4,7200,7291.4Z" transform="translate(-7141.06 -7039.58)"/><path class="cls-1" d="M7155.91,7287.09c8.26,1.54,16.57,2.83,24.91,3.79a172,172,0,0,0,28.68,1.33c1.41-.07,2.81-.25,4.21-.39-1.68.27-3.35.58-5,.75-2.18.23-4.37.44-6.56.56-4.78.26-9.56.27-14.34.15-9.46-.23-18.91-.95-28.32-2-1.38-.15-2.76-.32-4.13-.48Z" transform="translate(-7141.06 -7039.58)"/><path class="cls-2" d="M7200,7108.6c4.13,0,14.34.35,24.08,1.13,12.42,1,17.05,2.11,18.92,2.91l.43-5c-.5-.42-3.3-1.82-19-3.08-9.91-.8-20.27-1.15-24.46-1.15s-14.71.34-24.48,1.12c-15.76,1.24-18.48,2.67-19,3.09l.42,5c1.87-.81,6.5-1.93,19-2.91C7185.55,7108.94,7195.79,7108.6,7200,7108.6Z" transform="translate(-7141.06 -7039.58)"/><path class="cls-1" d="M7242.9,7114.83c-.22-.28-2.14-1.76-18.3-3.1-9.88-.82-20.33-1.19-24.6-1.19s-14.86.36-24.6,1.15c-16.18,1.32-18.08,2.83-18.29,3.12a.42.42,0,0,0,.05-.23l-1.94.16-.6-7.17a1.6,1.6,0,0,1,.46-1.25c.6-.64,2.17-2.35,20.53-3.79,9.75-.77,20.13-1.11,24.39-1.11s41.38,1.07,44.93,4.93a1.54,1.54,0,0,1,.45,1.22l-.6,7.17-1.94-.16A.38.38,0,0,0,7242.9,7114.83Zm-42.9-6.23c4.3,0,14.83.37,24.76,1.19,10.93.91,16,1.88,18.24,2.86l.43-5c-.5-.42-3.3-1.82-19-3.08-9.9-.8-20.26-1.15-24.45-1.15s-14.71.34-24.48,1.12c-15.76,1.24-18.48,2.67-19,3.09l.42,5.05a22.37,22.37,0,0,1,4.72-1.27c3.26-.6,7.81-1.14,13.53-1.6C7185,7109,7195.61,7108.6,7200,7108.6Z" transform="translate(-7141.06 -7039.58)"/><path class="cls-1" d="M7244.12,7112.87c-8.26-1.54-16.56-2.83-24.91-3.79a174,174,0,0,0-28.67-1.33c-1.41.07-2.81.26-4.21.39,1.67-.27,3.34-.57,5-.75,2.19-.23,4.37-.44,6.57-.56,4.77-.26,9.56-.27,14.34-.15,9.45.23,18.91.95,28.31,2,1.38.15,2.76.32,4.14.49Z" transform="translate(-7141.06 -7039.58)"/></svg>