<svg id="Layer_1" data-name="Layer 1" xmlns="http://www.w3.org/2000/svg" viewBox="0 0 138.71 356.77"><defs><style>.cls-1{fill:#2b2b2b;}.cls-2{fill:#fff;}</style></defs><title>the-buzzer</title><path class="cls-1" d="M7253.71,7137.78q-.06-3.46-.1-6.93c0-2.88-.07-5.1-.12-7.18-.14-5.38-.42-11-.83-16.8-.81-11.2-1.81-25.14-10.59-33.46a19.32,19.32,0,0,0-12.47-4.89h-76.53a19.32,19.32,0,0,0-12.47,4.89c-8.78,8.32-9.79,22.26-10.59,33.46-.41,5.77-.69,11.42-.83,16.8-.05,2.08-.09,4.36-.13,7.18l-.09,6.93c-.44,28.45,3.78,65.12,7.87,100.58,2.93,25.49,5.71,49.56,6.64,69.42a22,22,0,0,0,21.73,20.73h52.26a22,22,0,0,0,21.74-20.73c.93-19.86,3.7-43.93,6.64-69.42C7249.92,7202.9,7254.15,7166.23,7253.71,7137.78Z" transform="translate(-7115.03 -7021.11)"/><path class="cls-1" d="M7210.74,7326.54v1a19.41,19.41,0,0,1-38.81,0v-1h-10.51v1a29.92,29.92,0,0,0,59.83,0v-1Z" transform="translate(-7115.03 -7021.11)"/><path class="cls-1" d="M7248.58,7033.71a1,1,0,0,0-.72-.3H7134.8a1,1,0,0,0-1,1l1.89,45.67a1,1,0,0,0,1.87.43,23,23,0,0,1,4.35-5.7,17.42,17.42,0,0,1,11.11-4.35h76.53a17.42,17.42,0,0,1,11.11,4.35,23.66,23.66,0,0,1,4.4,5.78.85.85,0,0,0,.17.25,1,1,0,0,0,.71.31h0a1,1,0,0,0,.85-.49,1.06,1.06,0,0,0,.14-.48l1.9-45.77A1,1,0,0,0,7248.58,7033.71Z" transform="translate(-7115.03 -7021.11)"/><polygon class="cls-1" points="22.37 13.28 24.28 5.5 26.2 13.28 22.37 13.28"/><polygon class="cls-1" points="18.79 13.21 18.79 0 24 13.21 18.79 13.21"/><polygon class="cls-1" points="133.81 13.21 133.81 0 128.61 13.21 133.81 13.21"/><polygon class="cls-1" points="25.26 13.28 27.17 5.5 29.09 13.28 25.26 13.28"/><polygon class="cls-1" points="28.15 13.28 30.06 5.5 31.98 13.28 28.15 13.28"/><polygon class="cls-1" points="31.04 13.28 32.95 5.5 34.87 13.28 31.04 13.28"/><polygon class="cls-1" points="33.93 13.28 35.84 5.5 37.76 13.28 33.93 13.28"/><polygon class="cls-1" points="36.82 13.28 38.73 5.5 40.65 13.28 36.82 13.28"/><polygon class="cls-1" points="39.71 13.28 41.62 5.5 43.54 13.28 39.71 13.28"/><polygon class="cls-1" points="42.6 13.28 44.51 5.5 46.43 13.28 42.6 13.28"/><polygon class="cls-1" points="45.49 13.28 47.4 5.5 49.32 13.28 45.49 13.28"/><polygon class="cls-1" points="48.38 13.28 50.29 5.5 52.21 13.28 48.38 13.28"/><polygon class="cls-1" points="51.27 13.28 53.18 5.5 55.1 13.28 51.27 13.28"/><polygon class="cls-1" points="57.05 13.28 58.96 5.5 60.88 13.28 57.05 13.28"/><polygon class="cls-1" points="62.83 13.28 64.74 5.5 66.66 13.28 62.83 13.28"/><polygon class="cls-1" points="68.61 13.28 70.52 5.5 72.44 13.28 68.61 13.28"/><polygon class="cls-1" points="74.39 13.28 76.3 5.5 78.22 13.28 74.39 13.28"/><polygon class="cls-1" points="80.17 13.28 82.08 5.5 84 13.28 80.17 13.28"/><polygon class="cls-1" points="85.95 13.28 87.86 5.5 89.78 13.28 85.95 13.28"/><polygon class="cls-1" points="91.73 13.28 93.64 5.5 95.56 13.28 91.73 13.28"/><polygon class="cls-1" points="97.51 13.28 99.42 5.5 101.33 13.28 97.51 13.28"/><polygon class="cls-1" points="54.16 13.28 56.07 5.5 57.99 13.28 54.16 13.28"/><polygon class="cls-1" points="59.94 13.28 61.85 5.5 63.77 13.28 59.94 13.28"/><polygon class="cls-1" points="65.72 13.28 67.63 5.5 69.55 13.28 65.72 13.28"/><polygon class="cls-1" points="71.5 13.28 73.41 5.5 75.33 13.28 71.5 13.28"/><polygon class="cls-1" points="77.28 13.28 79.19 5.5 81.11 13.28 77.28 13.28"/><polygon class="cls-1" points="83.06 13.28 84.97 5.5 86.89 13.28 83.06 13.28"/><polygon class="cls-1" points="88.84 13.28 90.75 5.5 92.67 13.28 88.84 13.28"/><polygon class="cls-1" points="94.62 13.28 96.53 5.5 98.44 13.28 94.62 13.28"/><polygon class="cls-1" points="100.4 13.28 102.31 5.5 104.22 13.28 100.4 13.28"/><polygon class="cls-1" points="103.29 13.28 105.2 5.5 107.11 13.28 103.29 13.28"/><polygon class="cls-1" points="106.18 13.28 108.09 5.5 110 13.28 106.18 13.28"/><polygon class="cls-1" points="109.07 13.28 110.98 5.5 112.89 13.28 109.07 13.28"/><polygon class="cls-1" points="111.96 13.28 113.87 5.5 115.78 13.28 111.96 13.28"/><polygon class="cls-1" points="114.85 13.28 116.76 5.5 118.67 13.28 114.85 13.28"/><polygon class="cls-1" points="117.74 13.28 119.65 5.5 121.56 13.28 117.74 13.28"/><polygon class="cls-1" points="120.63 13.28 122.54 5.5 124.45 13.28 120.63 13.28"/><polygon class="cls-1" points="123.52 13.28 125.43 5.5 127.34 13.28 123.52 13.28"/><polygon class="cls-1" points="126.41 13.28 128.32 5.5 130.23 13.28 126.41 13.28"/><path class="cls-1" d="M7130.51,7170.69l-.27,1.37c-1.37,7.17-5.95,10.23-10.21,9.25h0c-4.26-1-6.16-5.52-4.27-12.58l14.25-53.26" transform="translate(-7115.03 -7021.11)"/><path class="cls-1" d="M7203.9,7327.53a61.38,61.38,0,0,0-6.4,27.45c0,16,.69,22.91-6.17,22.91s-6.16-6.92-6.16-22.91a61.38,61.38,0,0,0-6.4-27.45" transform="translate(-7115.03 -7021.11)"/><path class="cls-2" d="M7208.47,7112.23a18.53,18.53,0,0,1,18.67,19.78l-6.36,108.82a21.33,21.33,0,0,1-21,19.78h-17a21.32,21.32,0,0,1-21-19.78L7155.53,7132a18.51,18.51,0,0,1,18.66-19.78h34.28m0-3.94h-34.28a22.46,22.46,0,0,0-22.59,23.95l6.35,108.82a25.29,25.29,0,0,0,24.91,23.5h17a25.29,25.29,0,0,0,24.91-23.5l6.35-108.82a22.46,22.46,0,0,0-22.6-23.95Z" transform="translate(-7115.03 -7021.11)"/><path class="cls-2" d="M7210.64,7294.26a1.63,1.63,0,0,1-1.45,1.75h-35.71a1.63,1.63,0,0,1-1.45-1.75v-8.19a1.63,1.63,0,0,1,1.45-1.75h35.71a1.63,1.63,0,0,1,1.45,1.75Z" transform="translate(-7115.03 -7021.11)"/><path class="cls-2" d="M7191.33,7083.55a4.16,4.16,0,1,1-4.15,4.16A4.16,4.16,0,0,1,7191.33,7083.55Z" transform="translate(-7115.03 -7021.11)"/><path class="cls-2" d="M7191.33,7120.78a4.16,4.16,0,1,1-4.15,4.15A4.15,4.15,0,0,1,7191.33,7120.78Z" transform="translate(-7115.03 -7021.11)"/><path class="cls-2" d="M7191.33,7243.69a4.15,4.15,0,1,1-4.15,4.15A4.15,4.15,0,0,1,7191.33,7243.69Z" transform="translate(-7115.03 -7021.11)"/><path class="cls-2" d="M7158.15,7301a4.16,4.16,0,1,1-4.15,4.15A4.15,4.15,0,0,1,7158.15,7301Z" transform="translate(-7115.03 -7021.11)"/><circle class="cls-2" cx="7224.52" cy="7305.19" r="4.15" transform="translate(-10164.57 227.03) rotate(-45)"/><path class="cls-2" d="M7129,7137.78l.09-6.93c0-2.82.08-5.1.13-7.18,0-1.44.08-2.9.14-4.37,0-.41,0-.82,0-1.22l-3.83,14.32c.16,15.38.46,33.76,1.05,47.07a13.07,13.07,0,0,0,3.63-7C7129.28,7160.09,7128.79,7148.36,7129,7137.78Z" transform="translate(-7115.03 -7021.11)"/><path class="cls-2" d="M7203.39,7328.51h-24.12c.41.83,1,2.17,1.7,3.94h20.73C7202.38,7330.68,7203,7329.34,7203.39,7328.51Z" transform="translate(-7115.03 -7021.11)"/><path class="cls-2" d="M7210.71,7328.51a19.62,19.62,0,0,1-.61,3.94h10.74a31.86,31.86,0,0,0,.39-3.94Z" transform="translate(-7115.03 -7021.11)"/><path class="cls-2" d="M7172,7328.51h-10.51a28.42,28.42,0,0,0,.39,3.94h10.74A18.94,18.94,0,0,1,7172,7328.51Z" transform="translate(-7115.03 -7021.11)"/><polygon class="cls-2" points="133.08 31.08 19.52 31.08 19.69 35.02 132.92 35.02 133.08 31.08"/><path class="cls-2" d="M7232.65,7067.65H7150c-5.41,0-10.4,2.54-14.52,6.45v.22l.24,5.56.49-.6a23.08,23.08,0,0,1,9.16-6.81,13.32,13.32,0,0,1,4.63-.88h82.66a13.37,13.37,0,0,1,4.49.82,23.1,23.1,0,0,1,9.3,6.87l.52.63.24-5.78C7243.07,7070.2,7238.07,7067.65,7232.65,7067.65Z" transform="translate(-7115.03 -7021.11)"/></svg>