<svg id="Layer_1" data-name="Layer 1" xmlns="http://www.w3.org/2000/svg" viewBox="0 0 194.68 348.4"><defs><style>.cls-1{fill:#2b2b2b;}.cls-2{fill:#fff;}</style></defs><title>the-razor</title><path class="cls-1" d="M7243.59,7035.93s-41.8,168.71-38.32,172.32c5.5,5.71,17.82,7.16,17.82,7.16,4.18.5,2.3,6.77,1.89,8.44-.67,2.7-1.28,5.38-2,8.06a125.07,125.07,0,0,1-20.88,41c-11.86,15.7-25.46,30.07-35.17,47.32a103.2,103.2,0,0,0-5.39,10.78,60.62,60.62,0,0,0-3.66,12.32c-1.66,9-2.2,19.06,1.56,27.52,1.6,3.58,7.38,3.36,10.53,1.71,3.46-1.81,2-6.36,1.65-9.38a85.93,85.93,0,0,1-1-12.3,41.87,41.87,0,0,1,7.06-23c7.46-11.16,18.42-19.92,28.22-29.27,2-1.88,3.89-3.78,5.73-5.73,13.8-14.65,25.95-31.09,33.65-49.79,2.88-7,11.15-25.68,13.19-36.41l38.38-164.86S7273.65,7026.13,7243.59,7035.93Z" transform="translate(-7102.16 -7025.3)"/><path class="cls-2" d="M7290.42,7038.42q-1.68-.75-3.75-1.53l-41.16,182.74c1.26.3,2.55.61,3.87.95Z" transform="translate(-7102.16 -7025.3)"/><path class="cls-2" d="M7225.74,7219.87a235.56,235.56,0,0,1,26.74,5.65c.48-1.24,1-2.5,1.42-3.75a234.26,234.26,0,0,0-30.31-6.27C7225.5,7216,7225.87,7217.94,7225.74,7219.87Z" transform="translate(-7102.16 -7025.3)"/><path class="cls-1" d="M7176.76,7336.86c-27.8-10.66-50.53-88.88-59.62-138.87-13-71.24-10.39-135.79-10.39-135.79s-.47-30,22.38-32.35c20.37-2.06,28.35,15.86,28.95,23.64s3.75,83.16,10.76,129.17c5.84,38.29,26.24,122.49,29.16,134.47C7201.56,7331.72,7193.81,7343,7176.76,7336.86Z" transform="translate(-7102.16 -7025.3)"/><path class="cls-2" d="M7131,7048.51a5.08,5.08,0,1,1-5.07,5.1A5.08,5.08,0,0,1,7131,7048.51Z" transform="translate(-7102.16 -7025.3)"/><path class="cls-2" d="M7173.93,7311.94a5.08,5.08,0,1,1,0,7.19A5.07,5.07,0,0,1,7173.93,7311.94Z" transform="translate(-7102.16 -7025.3)"/><path class="cls-2" d="M7187.52,7273c-22.52,7.07-37.46,14.92-43.85,18.61.53,1.25,1.06,2.49,1.59,3.71,5.93-3.45,20.82-11.37,43.16-18.42Q7188,7275,7187.52,7273Z" transform="translate(-7102.16 -7025.3)"/><path class="cls-2" d="M7124.78,7088.1a255,255,0,0,0,34.92-5.37c-.08-1.38-.16-2.73-.23-4a253.32,253.32,0,0,1-35,5.44c-9.73.76-15,.92-17.9.9,0,1.29,0,2.62.07,4h.79C7111.34,7089,7117.16,7088.7,7124.78,7088.1Z" transform="translate(-7102.16 -7025.3)"/><path class="cls-2" d="M7127,7030.15c.68-.12,1.39-.23,2.12-.3,20.37-2.06,28.35,15.86,28.95,23.64s3.75,83.16,10.76,129.17c5.84,38.29,26.24,122.49,29.16,134.47,2.6,10.64-.83,19.56-9.5,21.19-3.21.6-7.13.21-11.74-1.46-27.8-10.66-50.53-88.88-59.62-138.87-13-71.24-10.39-135.79-10.39-135.79s-.44-28.15,20.26-32.05m-.81-4.31h0c-10.13,1.91-17.48,9-21.25,20.43a54.33,54.33,0,0,0-2.59,15.87c0,1.47-.59,17.55.34,41.41a698.87,698.87,0,0,0,10.12,95.22c2.55,14,9.91,50.42,23,85,12.41,32.72,25.65,52,39.36,57.22l0,0h0c5.17,1.88,9.9,2.43,14.05,1.65a16.05,16.05,0,0,0,10.8-7.16c3.22-5,4-11.88,2.16-19.38-3.86-15.83-23.39-96.67-29.09-134.09-5.79-38-9-97.19-10.18-119.46-.26-4.83-.43-8-.54-9.39-.49-6.24-4.2-15.21-11.39-21.22-6.08-5.08-13.82-7.31-22.38-6.45-.84.09-1.68.21-2.49.36Z" transform="translate(-7102.16 -7025.3)"/></svg>