<svg xmlns="http://www.w3.org/2000/svg" viewBox="0 0 179.62 349.42"><defs><style>.cls-1{isolation:isolate;}.cls-2{fill:#fff;}.cls-3{fill:#282828;}.cls-4{fill:#2b2b2b;}.cls-5{mix-blend-mode:screen;}.cls-6{fill:#6b6b6b;}</style></defs><title>the-razor-2</title><g class="cls-1"><g id="Layer_1" data-name="Layer 1"><path class="cls-2" d="M7235,7033.07s-33.26,170-29.61,173.44c5.76,5.41,18.09,6.24,18.09,6.24,4.19.3,2.63,6.63,2.3,8.31-.53,2.72-1,5.42-1.63,8.12a124.41,124.41,0,0,1-18.75,41.84c-11,16.21-23.86,31.2-32.67,48.85a103.15,103.15,0,0,0-4.83,11,60.82,60.82,0,0,0-3,12.45c-1.21,9-1.24,19.08,2.92,27.32,1.76,3.49,7.51,3,10.56,1.19,3.36-2,1.73-6.44,1.18-9.43a87.81,87.81,0,0,1-1.58-12.19,41.82,41.82,0,0,1,5.89-23.23c6.87-11.48,17.35-20.74,26.65-30.54,1.87-2,3.68-4,5.42-6,13-15.26,24.28-32.23,31-51.23,2.52-7.11,9.83-26.11,11.33-36.89l30-166S7264.45,7021.82,7235,7033.07Z" transform="translate(-7109.69 -7024.79)"/><path class="cls-3" d="M7288.83,7035.45a58.13,58.13,0,0,0-15.91-5.95,65.66,65.66,0,0,0-38.26,2.65,1,1,0,0,0-.62.73c-.08.43-8.41,43-16.17,85.45-15.82,86.39-14.08,88-13.15,88.9,2.52,2.37,6.45,4.18,11.67,5.4a48.84,48.84,0,0,0,7,1.08v0a1.7,1.7,0,0,1,1.34.65c1.09,1.43.39,4.84.12,6.13l-.07.35-.42,2.2c-.37,1.93-.75,3.93-1.2,5.89a122.68,122.68,0,0,1-18.6,41.5c-3.42,5-7.08,10-10.61,14.85-7.88,10.76-16,21.88-22.13,34.12a103.42,103.42,0,0,0-4.87,11.1,61.35,61.35,0,0,0-3.08,12.65c-1.56,11.67-.58,20.79,3,27.9,2,4,7.94,3.64,11.44,1.87h0l.52-.28c3.49-2.05,2.59-6.12,1.93-9.09-.1-.48-.2-.94-.28-1.36a85.32,85.32,0,0,1-1.56-12.06,41,41,0,0,1,5.74-22.68c5.25-8.75,12.76-16.35,20-23.69,2.15-2.18,4.37-4.43,6.5-6.68s3.87-4.17,5.45-6c14.89-17.47,25.1-34.33,31.21-51.54.35-1,.79-2.21,1.3-3.6,3.06-8.42,8.76-24.09,10.08-33.47l30-166A1,1,0,0,0,7288.83,7035.45Zm-31.53,166.69v0c-1.28,9.18-6.94,24.74-10,33.09-.51,1.4-.95,2.62-1.3,3.61-6,17-16.12,33.64-30.85,50.92-1.56,1.83-3.32,3.77-5.38,5.95s-4.33,4.47-6.48,6.64c-7.34,7.43-14.94,15.11-20.3,24.07a43,43,0,0,0-6,23.77,87.76,87.76,0,0,0,1.59,12.34c.09.45.19.93.3,1.43.73,3.3,1.08,5.73-1,7l-.4.22c-2.75,1.39-7.42,1.68-8.77-1-3.41-6.73-4.33-15.48-2.82-26.74a59.14,59.14,0,0,1,3-12.24,100.36,100.36,0,0,1,4.78-10.88c6-12.1,14.13-23.15,21.95-33.83,3.55-4.85,7.21-9.86,10.65-14.91a124.68,124.68,0,0,0,18.9-42.17c.46-2,.84-4,1.21-6l.42-2.19.07-.33c.37-1.81,1.15-5.59-.48-7.73a3.71,3.71,0,0,0-2.79-1.43h0c-.12,0-11.89-.85-17.38-5.88-.54-1.92.62-16.25,13.91-88.7,7.21-39.32,14.8-78.34,15.78-83.37a63.78,63.78,0,0,1,36.52-2.39,59.81,59.81,0,0,1,14.81,5.4Z" transform="translate(-7109.69 -7024.79)"/><path class="cls-2" d="M7234.84,7033.17s-33.26,170-29.61,173.43c5.76,5.41,18.09,6.24,18.09,6.24a3.3,3.3,0,0,1,2.57,1.14c7.33.84,17.79.8,23.95-1.56l31.86-179A64.91,64.91,0,0,0,7234.84,7033.17Z" transform="translate(-7109.69 -7024.79)"/><polygon class="cls-4" points="162.82 58.17 105.22 114.55 109.65 91.12 167.51 31.34 162.82 58.17"/><polygon class="cls-4" points="157.28 89.78 99.87 145.58 101.89 130.82 160.55 71.09 157.28 89.78"/><polygon class="cls-4" points="164.28 10.26 115.57 59.2 117.48 48.21 159.88 5.04 164.28 10.26"/><polygon class="cls-4" points="147.46 140.67 101.3 185.54 95.92 182.63 94.76 178.97 150.73 121.98 147.46 140.67"/><polygon class="cls-4" points="97.16 163.95 139.81 122.18 95.97 172.98 97.16 163.95"/><polygon class="cls-4" points="162.32 63.32 129.85 95.12 163.56 56.05 162.32 63.32"/><polygon class="cls-4" points="114.81 62.34 160.55 17.55 113.06 72.58 114.81 62.34"/><polygon class="cls-4" points="157.54 4.67 131.56 30.11 153.88 4.24 157.54 4.67"/><polygon class="cls-4" points="177.97 10.34 154.46 132.04 174.58 9.73 177.97 10.34"/><g class="cls-5"><rect class="cls-6" x="7153.3" y="7116.56" width="187.17" height="10.01" transform="translate(-8154.41 5969.03) rotate(-79.81)"/></g><g class="cls-5"><rect class="cls-6" x="7143.02" y="7118.72" width="185.7" height="3.76" transform="translate(-8162.52 5957.39) rotate(-79.81)"/></g><g class="cls-5"><polygon class="cls-6" points="136.23 5.63 119.16 93.05 133.63 5.16 136.23 5.63"/></g><g class="cls-5"><polygon class="cls-6" points="129.71 187.4 151.93 71.25 132.31 187.86 129.71 187.4"/></g><g class="cls-5"><polygon class="cls-6" points="97.12 183.65 110.88 114.48 99.62 184.53 97.12 183.65"/></g><path class="cls-4" d="M7167.92,7330.86a60.82,60.82,0,0,0-3,12.45c-1.21,9-1.24,19.08,2.92,27.32,1.18,2.34,4.17,2.88,6.92,2.44-3.34-7.66-10-27.88-3.4-47.92a26.49,26.49,0,0,1-2.24,3.52A15.35,15.35,0,0,0,7167.92,7330.86Z" transform="translate(-7109.69 -7024.79)"/><path class="cls-4" d="M7192.67,7288.59c-19.92,31.28-15.64,62.69-15.64,62.69s1.29-8.5,1.54-10c.79-4.59,3-18.08,25.82-38.7C7202.61,7300.7,7192.67,7288.59,7192.67,7288.59Z" transform="translate(-7109.69 -7024.79)"/><path class="cls-4" d="M7225.88,7214.48c.83,2.09,0,5.37-.19,6.51-.53,2.72-1,5.42-1.62,8.12a124.61,124.61,0,0,1-18.75,41.84c-4.07,6-8.39,11.8-12.65,17.64,4.84,5.77,8.1,10.33,10.17,12.78.36.42,1.18.71,1.51,1.14l0,0c2-2.06,4-4.11,6-6.18s3.68-4,5.41-6a194.39,194.39,0,0,0,20.07-27.89,8.37,8.37,0,0,0,.22-2.08c-5.35,8-21.09,31-29.47,37.92-3,2.48-5.9-.26-6.67-1.08s-2.31-4.11,0-8.41c1.12-2.1,6.17-7.94,7.53-10.23,20.38-28.5,23.39-54.8,23.39-54.8s.35-7.67,12.59-8.94Z" transform="translate(-7109.69 -7024.79)"/><path class="cls-4" d="M7249.12,7220.23c-1.39,3.89-2.74,7.79-4.21,11.65-1.71,4.51-3.56,9-5.49,13.37s-3.95,8.82-6.21,13.09c-2.13,4-4.31,8-6.81,11.85a8.27,8.27,0,0,0-.89,1.42c.17.14,2.67-3.19,2.88-3.48,1.42-1.91,2.74-3.89,4-5.9a117.3,117.3,0,0,0,7-12.81,146.88,146.88,0,0,0,9.37-26.73,20.43,20.43,0,0,0,.66-3s-.14.19-.26.53C7249.09,7220.3,7249.24,7219.89,7249.12,7220.23Z" transform="translate(-7109.69 -7024.79)"/><path class="cls-4" d="M7282.06,7032.45a66.1,66.1,0,0,0-47.58-.21l-.51.19-.11.54c-.08.43-8.41,43-16.17,85.45-15.82,86.39-14.08,88-13.15,88.9a16.41,16.41,0,0,0,3.6,2.52,29.41,29.41,0,0,0,4.16,1.78,40.08,40.08,0,0,0,4.16,1.16c1.2.27,2.41.5,3.62.68,1,.16,2,.26,3,.37.21,0,.43,0,.64.07a2,2,0,0,1,1.29.62c.09.13.12.34.29.4a1.54,1.54,0,0,0,.43.05c7.18.82,17.89.88,24.43-1.62l.52-.2,32.1-180.4Zm-6.93,21.23c-3.19,16-22.94,125.47-27.5,150.79-1.54,5.22-8.88,7.07-13,7.7a87.87,87.87,0,0,1-10.86-.28l-.4,0c-.12,0-11.89-.85-17.38-5.87-.54-1.93.62-16.26,13.91-88.71,7.21-39.32,14.8-78.34,15.78-83.37a63.29,63.29,0,0,1,34.51-2.81C7273,7033.67,7277.8,7040.33,7275.13,7053.68Z" transform="translate(-7109.69 -7024.79)"/><path class="cls-2" d="M7173.57,7178c-7.33-45.81-11-120.92-11.68-128.66s-8.75-25.55-29-23.35c-22.76,2.47-22.07,32.41-22.07,32.41s-2.08,64.35,11.36,135.25c9.43,49.77,32.65,127.56,60.45,138,17,6,24.67-5.31,21-19.82C7200.62,7299.86,7179.66,7216.1,7173.57,7178Z" transform="translate(-7109.69 -7024.79)"/><path class="cls-4" d="M7174.55,7177.83c-6.08-38-9.71-97.09-11.07-119.33-.29-4.78-.49-7.95-.6-9.27-.66-7.74-8.38-24.65-27-24.44-1,0-2.08.08-3.15.19-9.71,1.06-16.77,7.21-20.4,17.8a50,50,0,0,0-2.55,15.6c-.05,1.62-1.83,65.79,11.37,135.44,2.63,13.88,10.18,49.84,23.39,83.91,12.25,31.58,24.93,50,37.7,54.81a27,27,0,0,0,9.16,1.71c4.63-.05,8.39-1.79,10.89-5,3.22-4.18,4-10.62,2.27-17.69C7200.62,7295.77,7180.53,7215.22,7174.55,7177.83ZM7200.73,7328a11.4,11.4,0,0,1-9.33,4.25,24.88,24.88,0,0,1-8.46-1.59c-12-4.51-24.66-23.06-36.53-53.66-13.15-33.91-20.66-69.73-23.29-83.56-13.26-70-11.35-134.39-11.33-135v-.05a48.28,48.28,0,0,1,2.46-15c3.42-9.92,9.71-15.44,18.72-16.42,1-.11,2-.17,2.95-.18,17.22-.19,24.36,15.45,25,22.62.11,1.3.31,4.62.6,9.22,1.36,22.27,5,81.41,11.09,119.52,6,37.47,26.1,118.1,30.07,133.88C7204.28,7318.49,7203.58,7324.32,7200.73,7328Z" transform="translate(-7109.69 -7024.79)"/><path class="cls-4" d="M7154.62,7298l-.88-1.79c.37-.4,9.06-9.57,41.47-18.44l.53,1.92c-16.59,4.54-26.89,9.27-32.61,12.45C7156.94,7295.57,7154.64,7298,7154.62,7298Z" transform="translate(-7109.69 -7024.79)"/><path class="cls-2" d="M7156.91,7302.7s7.9-8.49,39.93-18.38" transform="translate(-7109.69 -7024.79)"/><path class="cls-4" d="M7157.17,7303.86l-1-1.83c.33-.36,8.46-8.8,40.36-18.66l.59,1.9C7165.88,7294.92,7157.25,7303.77,7157.17,7303.86Z" transform="translate(-7109.69 -7024.79)"/><path class="cls-4" d="M7134.43,7044.56a5.07,5.07,0,1,1-5,5.12A5.07,5.07,0,0,1,7134.43,7044.56Z" transform="translate(-7109.69 -7024.79)"/><path class="cls-2" d="M7134.51,7051.88a3.14,3.14,0,0,1-3.09-2.42,3,3,0,0,0-.06.68,3.13,3.13,0,1,0,6.26-.07,3,3,0,0,0-.08-.68A3.14,3.14,0,0,1,7134.51,7051.88Z" transform="translate(-7109.69 -7024.79)"/><path class="cls-4" d="M7180.5,7309.08a5.07,5.07,0,1,1,.08,7.17A5.08,5.08,0,0,1,7180.5,7309.08Z" transform="translate(-7109.69 -7024.79)"/><path class="cls-4" d="M7132.83,7074.83c16.9-1.45,26.62-4.4,30.3-5.74,0-.71-.09-1.4-.13-2.08-3,1.12-12.78,4.34-30.34,5.84-12.87,1.1-19.19,1.11-22,1,0,.56,0,1.45,0,2,.95.1,2.3,0,5.09,0C7119.19,7075.84,7124.5,7075.54,7132.83,7074.83Z" transform="translate(-7109.69 -7024.79)"/><path class="cls-4" d="M7115.13,7080.87c3.95,0,10-.41,18.12-1.1,17.83-1.53,27.21-4.35,30.22-5.41-.05-.7-.09-1.39-.13-2.07-2.05.75-11.45,3.89-30.26,5.5-15.88,1.35-20.94,1.15-22.32,1q0,.91,0,1.86a15,15,0,0,0,3,.23Z" transform="translate(-7109.69 -7024.79)"/><path class="cls-4" d="M7151.14,7051.14c.47,6.48.89,15.24-2.46,20.65,3.81-.69,6.87-1.44,9.83-2.08,1.41-.3,3.13-.78,4.59-1.12-.64-10.1-1-17.17-1.22-19.27-.51-6-5.41-17.85-16.86-22-3.81-1.05-4.9-.27-6.69-.42C7148.36,7027.72,7150.5,7042.36,7151.14,7051.14Z" transform="translate(-7109.69 -7024.79)"/><path class="cls-4" d="M7203.62,7311.78c-.91-3.61-3.46-13.8-6.75-27.31l-12.56,4.07s19.18,27.44,14.42,41.81l1.22-.07C7204.27,7326.53,7205.59,7319.62,7203.62,7311.78Z" transform="translate(-7109.69 -7024.79)"/><path class="cls-2" d="M7185.74,7314.2a3.13,3.13,0,0,1-3.89.47,2.7,2.7,0,0,0,.43.53,3.13,3.13,0,1,0,4.38-4.48,3.57,3.57,0,0,0-.54-.42A3.12,3.12,0,0,1,7185.74,7314.2Z" transform="translate(-7109.69 -7024.79)"/><path class="cls-4" d="M7189,7330.24s-.57-.18-1.46-.55a29.76,29.76,0,0,1-3.63-1.78,37,37,0,0,1-4.94-3.4,54,54,0,0,1-5.4-5c-1.65-1.74-3.27-3.63-4.83-5.62-1.24-1.58-2.45-3.23-3.59-4.88-1-1.41-1.72-2.58-2.24-3.4l-.82-1.34c-.13-.21-.23-.33-.27-.32s0,.18.09.41c0,0,.21.56.62,1.45s1,2.16,1.83,3.69a60.48,60.48,0,0,0,3.23,5.24,51.68,51.68,0,0,0,4.78,5.9,38.75,38.75,0,0,0,5.74,5,31,31,0,0,0,5.38,3.09,24.59,24.59,0,0,0,3.91,1.37c.95.24,1.51.31,1.55.33.24.05.4.05.41,0S7189.26,7330.33,7189,7330.24Z" transform="translate(-7109.69 -7024.79)"/><path class="cls-4" d="M7114.6,7064.88l.48-5.21c.21-2.37.63-4.71,1-7.05a56.56,56.56,0,0,1,1.72-6.9,30,30,0,0,1,2.71-6.42,22.52,22.52,0,0,1,3.22-4.48,13.9,13.9,0,0,1,1.89-1.71c.32-.23.64-.46,1-.67.08,0,.7-.34.67-.44s-2.25.93-2.41,1a18.77,18.77,0,0,0-2.67,2.11,22,22,0,0,0-4.13,5.71c-2.22,4.11-3.15,8.79-3.67,13.39-.11,1-.17,1.95-.2,2.93s-.11,2.13-.07,3.18a39.41,39.41,0,0,0,.33,4.91s.08-.15.11-.38S7114.57,7065.11,7114.6,7064.88Z" transform="translate(-7109.69 -7024.79)"/><path class="cls-4" d="M7118,7079.85c-.47,23.67,1.18,31,4.59,70.12,2.13,24.48,8.26,47.57,14,71.46,3.26,13.51,6.86,26.79,11.27,40,4,12,6.09,20.28,11.88,31.57-.15-.3,11-5.63,12-6,2.17-.93,4.62-1.9,6.79-2.83.59-.25,1.33-.52,1.94-.76,1.45-.56,4.12-1.45,5.59-2,.61-.23,5.65-1.79,6.69-2-31.6-109.07-32.59-205-32.59-205C7144.67,7078.62,7118,7079.85,7118,7079.85Z" transform="translate(-7109.69 -7024.79)"/><path class="cls-2" d="M7179.82,7244.75c-1.21-5-2.41-9.95-3.49-15s-2.2-10-3.17-15.06c-1.94-10.1-3.85-20.21-5.41-30.38-1.6-10.39-3.19-20.78-4.54-31.21s-2.53-20.88-3.56-31.35q-1.47-15.06-2.46-30.15l-.3-4.53c0-.51-.06-1-.1-1.51a7.25,7.25,0,0,1-.11-1c-.07.06,0,.39,0,.47,0,.36,0,.71,0,1.07l.06,2.35c.07,2.6.2,5.21.32,7.81.26,5.26.61,10.51,1,15.76q1.17,15.76,2.91,31.48c1.15,10.47,2.43,20.94,4.05,31.35s3.27,20.65,5.33,30.89c1,5,2,10.08,3.09,15.09l2,8.82c.64,2.82,1.29,5.63,2,8.43,1.3,5.07,2.54,10.15,4,15.19.93,3.26,1.91,6.5,2.88,9.75.29,1,.57,1.94.87,2.91.13.43.26.85.4,1.27,0,0,.22.59.23.58s-.19-.93-.22-1c-.16-.65-.33-1.3-.5-2-.5-1.9-1-3.8-1.52-5.7-1.29-4.78-2.61-9.57-3.71-14.41C7179.24,7242.39,7181.29,7251.26,7179.82,7244.75Z" transform="translate(-7109.69 -7024.79)"/><path class="cls-2" d="M7165.58,7293.57a161.64,161.64,0,0,1-9.77-23.38,286.72,286.72,0,0,1-8.34-29.34c-1.72-7.4-3.08-14.87-4.41-22.35,1.75,8.18,3.56,16.33,5.79,24.4a284.62,284.62,0,0,0,9.55,28.79,153.57,153.57,0,0,0,9.57,20.51Z" transform="translate(-7109.69 -7024.79)"/><path class="cls-4" d="M7110.8,7075.36a127.44,127.44,0,0,0,12.82.26c2.52,0,5.07-.11,7.58-.3s5-.32,7.52-.6c2-.23,4-.43,6-.65-3.64.7-7.28,1.39-10.94,2-5,.78-10,1.39-15.08,1.74-2.66.18-5.33.36-8,.34Z" transform="translate(-7109.69 -7024.79)"/><path class="cls-4" d="M7196.75,7281.6l-1.13.31c-.72.19-1.74.47-3,.82-2.47.69-5.74,1.66-9,2.67-1.62.53-3.25,1.05-4.76,1.56l-4.14,1.46-4,1.54,3.82-1.94,4-1.87c1.47-.66,3-1.34,4.62-2,3.16-1.34,6.33-2.65,8.73-3.58,1.2-.48,2.21-.86,2.91-1.13l1.11-.42Z" transform="translate(-7109.69 -7024.79)"/><path class="cls-4" d="M7115.81,7079.76s0,.33,0,1,0,1.55.05,2.73.05,2.6.1,4.24.11,3.49.18,5.51.17,4.21.27,6.52.2,4.75.35,7.28.31,5.13.47,7.78c.08,1.32.16,2.66.25,4s.21,2.68.31,4c.42,5.38.8,10.76,1.34,15.79.25,2.52.48,4.95.71,7.26.12,1.15.23,2.28.34,3.36s.26,2.13.38,3.14c1,8,1.64,13.39,1.64,13.39s-.87-5.33-2.17-13.32q-.26-1.5-.51-3.12c-.15-1.08-.31-2.2-.47-3.35-.32-2.3-.66-4.73-1-7.23-.75-5-1.34-10.39-2-15.76l-.48-4c-.13-1.34-.27-2.67-.4-4-.27-2.65-.53-5.26-.79-7.78s-.43-5-.64-7.28-.4-4.5-.53-6.53-.28-3.88-.4-5.52-.2-3.09-.27-4.27-.13-2.12-.16-2.75-.05-1-.05-1Z" transform="translate(-7109.69 -7024.79)"/></g></g></svg>