<svg id="Layer_1" data-name="Layer 1" xmlns="http://www.w3.org/2000/svg" viewBox="0 0 147.05 352.89"><defs><style>.cls-1{fill:#fff;}.cls-2{fill:#2b2b2b;}</style></defs><title>the-scissors</title><path class="cls-1" d="M7160.38,7348.81a33.67,33.67,0,0,1-20.31-6.41c-7.21-5.21-12.19-14.06-13.66-24.3s.73-20.11,6-27.38a49.46,49.46,0,0,1,17.14-14.71c3.91-2.11,9.09-6.19,11.2-10.15,2.32-4.37,4.14-17.17,5.22-24.82.58-4.05.94-7.25,1.35-10.95.34-3,.72-6.35,1.28-10.8l19.12-193.67a2.84,2.84,0,0,1,2.74-2.56h0a2.84,2.84,0,0,1,2.85,2.39c4.81,29.71,10.07,172.73,10.3,178.8a2.9,2.9,0,0,1-.6,1.86c-2.89,3.7-6.19,7.89-8.69,10.73a76.25,76.25,0,0,0-6.92,9.76,41.82,41.82,0,0,0-4.22,8.94c-3.25,9-4.26,18.75-4.82,27.12a52.58,52.58,0,0,0,.09,9.12c.4,3.86,2.94,7,5.63,10.4a39.15,39.15,0,0,1,5.43,8.14,52.61,52.61,0,0,1,4.27,17,7.23,7.23,0,0,1,7.1,7.16v.73a7.24,7.24,0,0,1-7.11,7.27h-1a33.4,33.4,0,0,1-32.44,26.35Zm30.13-293.89-16.28,165s0,0,0,.08c-.56,4.43-.94,7.79-1.27,10.75-.42,3.75-.79,7-1.37,11.12-1.61,11.3-3.26,21.84-5.84,26.69-2.86,5.38-9.07,10.09-13.52,12.49a43.3,43.3,0,0,0-15.23,13c-4.38,6.08-6.19,14.55-4.94,23.24s5.38,16.19,11.35,20.49a28.21,28.21,0,0,0,39.4-6.37,29.49,29.49,0,0,0,4.88-12.23,2.83,2.83,0,0,1,2.76-2.4h0l3.22,0a1.53,1.53,0,0,0,1.52-1.54v-.73a1.55,1.55,0,0,0-1.54-1.52l-2.53,0a2.85,2.85,0,0,1-2.87-2.75,47.54,47.54,0,0,0-3.92-17.58,34.08,34.08,0,0,0-4.7-6.93c-3.08-3.86-6.26-7.84-6.84-13.36a58.73,58.73,0,0,1-.11-10.09c.59-8.76,1.66-19,5.15-28.68a47.3,47.3,0,0,1,4.74-10,81.67,81.67,0,0,1,7.48-10.53c2.22-2.51,5.16-6.22,7.83-9.65C7197.51,7192.84,7194.16,7104.58,7190.51,7054.92Zm-30.34,286.46a26.1,26.1,0,0,1-15.78-5c-5.61-4-9.48-11.16-10.63-19.53s.57-16.21,4.64-21.86a28.28,28.28,0,0,1,22.32-11.81,24.22,24.22,0,0,1,14.67,4.57c5.6,4,9.43,11.4,10.53,20.21,1.05,8.49-.72,16.89-4.74,22.47A26.49,26.49,0,0,1,7160.17,7341.38Zm.63-52.49a22.85,22.85,0,0,0-17.79,9.45c-6.79,9.42-4.33,26.93,4.71,33.45a20.67,20.67,0,0,0,28.85-4.67c3.2-4.44,4.58-11.34,3.7-18.44s-4-13.23-8.21-16.3A18.64,18.64,0,0,0,7160.8,7288.89Z" transform="translate(-7125.97 -7023.06)"/><path class="cls-2" d="M7193.65,7310.13l-2.53,0h0a50.53,50.53,0,0,0-4.18-18.66c-3.09-6.86-10.48-11.62-11.3-19.42a56,56,0,0,1-.1-9.6c.63-9.4,1.77-19,5-27.9a43.91,43.91,0,0,1,4.48-9.47,77.62,77.62,0,0,1,7.2-10.15c2.38-2.69,5.55-6.72,8.57-10.6,0,0-5.43-148.56-10.26-178.45l-19.12,193.71c-1.27,10-1.6,14.49-2.64,21.83-1.35,9.54-3.08,21.14-5.53,25.76s-7.88,8.89-12.36,11.31a46.23,46.23,0,0,0-16.18,13.88c-10,13.91-6.87,37.66,7.05,47.7a31,31,0,0,0,43.36-7,32.33,32.33,0,0,0,5.39-13.44h0l3.23,0a4.39,4.39,0,0,0,4.34-4.4v-.73A4.39,4.39,0,0,0,7193.65,7310.13Zm-14.78,18.65a23.5,23.5,0,0,1-32.82,5.31c-10.53-7.59-12.94-26.88-5.34-37.41s22.48-14.2,33-6.61S7186.47,7318.25,7178.87,7328.78Z" transform="translate(-7125.97 -7023.06)"/><path class="cls-1" d="M7267.77,7375.94h0c-3.12.13-7.2-1.55-12.49-5.14-9.42-6.39-17.48-18.88-20.08-23.16a33.93,33.93,0,0,1-10.05-1.68c-17.31-5.64-28.46-26.06-24.34-44.59a51,51,0,0,1,4.42-11.39,50.59,50.59,0,0,0,3.79-9.3,33.81,33.81,0,0,0,.8-12.27c-1.66-15.39-9.41-32.72-13.9-41.71a48.86,48.86,0,0,0-22.71-20.93,2.86,2.86,0,0,1-1.83-2.91c0-.45,3.85-44.78,4.66-65.81.8-20.77,7.08-107.47,7.35-111.16h0v-.07a2.85,2.85,0,0,1,5.68.17c0,.06,0,.12,0,.17l.33,3.7.52,5.76c.29,3.27.59,6.54.88,9.81q.8,8.79,1.58,17.6l.1,1.05q.54,6.12,1.1,12.25l1.71,19.06q.7,7.88,1.42,15.76,1.13,12.57,2.26,25.14.6,6.81,1.22,13.6c.33,3.61.65,7.21,1,10.82q.36,4,.71,8,.59,6.54,1.18,13.09c.17,1.84.29,3.17.39,4.32.22,2.33.37,3.94.69,7.68,0,.39.58,5.26,1.49,10.27s5.48,19.35,7.26,24.36c2.17,6.13,3.74,11,5.26,15.67,1.42,4.37,2.76,8.5,4.43,13.16a47.59,47.59,0,0,0,3.79,7.55c5.11,7.59,12.49,10,19.62,12.32,8.41,2.74,15.65,9.73,19.86,19.17,4.08,9.16,4.82,19.33,2,27.91a33.79,33.79,0,0,1-17.42,20c3.41,12.11,14.74,19.15,18.61,21.56.49.3.87.54,1.17.74a5.52,5.52,0,0,1,2.75,4.16,4.6,4.6,0,0,1-1.12,3.36A5.38,5.38,0,0,1,7267.77,7375.94Zm-90.55-174.62a54.73,54.73,0,0,1,23.71,22.68.93.93,0,0,1,0,.1c4.66,9.33,12.74,27.4,14.5,43.7a39.76,39.76,0,0,1-.95,14.33,56.54,56.54,0,0,1-4.18,10.34,46.06,46.06,0,0,0-4,10.14,34,34,0,0,0,3.45,23c3.92,7.35,10,12.67,17.1,15a28.2,28.2,0,0,0,9.8,1.38,2.85,2.85,0,0,1,2.58,1.44c.09.16,9.05,15.84,19.19,22.73a37.69,37.69,0,0,0,5.49,3.17c-5.82-3.81-16.93-12.24-19.59-26.16a2.85,2.85,0,0,1,1.73-3.18,28.14,28.14,0,0,0,16.38-17.47c2.36-7.25,1.7-15.93-1.82-23.83s-9.54-13.83-16.42-16.07c-7.69-2.51-16.41-5.35-22.61-14.6l-.05-.07a53.82,53.82,0,0,1-4.35-8.69c-1.7-4.74-3.05-8.91-4.48-13.32-1.51-4.66-3.07-9.47-5.22-15.53-1.73-4.88-6.5-19.78-7.49-25.24s-1.53-10.5-1.55-10.71v0c-.33-3.75-.48-5.36-.69-7.69-.11-1.15-.23-2.48-.4-4.33l-1.17-13.1-.72-8c-.33-3.6-.65-7.2-1-10.81q-.6-6.8-1.22-13.6-1.12-12.57-2.26-25.14-.71-7.89-1.42-15.77l-1.71-19.05q-.56-6.12-1.1-12.26l-.09-1-.18-2c-1.94,27.65-4.36,63.41-4.84,75.73C7181,7155.84,7178,7192.34,7177.22,7201.32Zm59.84,137.36a29.78,29.78,0,0,1-17.86-5.14c-5.72-3.88-9.7-10.57-10.93-18.37a29.66,29.66,0,0,1,4.27-21.08,26.47,26.47,0,0,1,20.69-11.53,26.1,26.1,0,0,1,15.92,4.52c5.72,3.89,9.79,10.89,11.18,19.22s-.1,16.22-4,22A24.19,24.19,0,0,1,7237.06,7338.68Zm-3.59-50.44a20.52,20.52,0,0,0-16.22,9,23.94,23.94,0,0,0-3.36,17c1,6.24,4.09,11.54,8.5,14.54a24,24,0,0,0,14.42,4.16,18.31,18.31,0,0,0,14.8-7.9c3.05-4.5,4.21-11.18,3.1-17.86s-4.32-12.43-8.76-15.44A20.53,20.53,0,0,0,7233.47,7288.24Z" transform="translate(-7125.97 -7023.06)"/><path class="cls-2" d="M7268.66,7368.87c-2.67-1.81-18.39-10.11-21.49-26.3a31,31,0,0,0,18-19.22c5.32-16.32-3.75-38.18-20.06-43.5-7.55-2.46-15.53-5.13-21.13-13.47a50.76,50.76,0,0,1-4.08-8.14c-3.45-9.63-5.48-16.93-9.69-28.84-1.74-4.9-6.43-19.57-7.38-24.8s-1.52-10.5-1.52-10.5c-.49-5.61-.58-6.42-1.08-12q-1-10.55-1.9-21.11-1.1-12.21-2.2-24.41-1.12-12.57-2.26-25.15l-2.19-24.49-2-22.58q-.83-9.33-1.67-18.65-.6-6.56-1.18-13.12c-.19-2.05-.37-4.1-.56-6.15,0-.1,0-.22,0-.33s-6.54,90.05-7.35,111.08c-.82,21.35-4.67,65.94-4.67,65.94a51.26,51.26,0,0,1,24.23,22.27c6.23,12.47,12.7,28.72,14.21,42.73a36.85,36.85,0,0,1-.88,13.31c-1.94,7.4-6.52,13.09-8.19,20.58-3.72,16.75,6.14,35.95,22.45,41.27a30.83,30.83,0,0,0,10.79,1.51s9.23,16.33,20.06,23.68,12.8,3.79,12.8,3.79S7271.33,7370.68,7268.66,7368.87Zm-47.86-37.69c-10.75-7.29-13.2-24.75-5.9-35.5a23.5,23.5,0,0,1,32.65-6.24c10.74,7.29,13.71,26.5,6.41,37.24S7231.54,7338.48,7220.8,7331.18Z" transform="translate(-7125.97 -7023.06)"/><path class="cls-1" d="M7184.34,7160.78l-.33-102.43-3,43.26.19,60.12a1.6,1.6,0,0,0,.84,1.4l17.45,9.25c-.08-1.22-.17-2.46-.26-3.72Z" transform="translate(-7125.97 -7023.06)"/><path class="cls-1" d="M7187.72,7185.24a3.71,3.71,0,1,1-3.55,3.88A3.72,3.72,0,0,1,7187.72,7185.24Z" transform="translate(-7125.97 -7023.06)"/></svg>